<?xml version="1.0" encoding="UTF-8" standalone="no"?>
<!-- Created with Inkscape (http://www.inkscape.org/) -->

<svg
   width="15mm"
   height="45mm"
   viewBox="0 0 15 45"
   version="1.1"
   id="svg39752"
   inkscape:version="1.4 (e7c3feb100, 2024-10-09)"
   sodipodi:docname="SmallSense.svg"
   xmlns:inkscape="http://www.inkscape.org/namespaces/inkscape"
   xmlns:sodipodi="http://sodipodi.sourceforge.net/DTD/sodipodi-0.dtd"
   xmlns:xlink="http://www.w3.org/1999/xlink"
   xmlns="http://www.w3.org/2000/svg"
   xmlns:svg="http://www.w3.org/2000/svg">
  <sodipodi:namedview
     id="namedview39754"
     pagecolor="#ffffff"
     bordercolor="#666666"
     borderopacity="1.0"
     inkscape:showpageshadow="2"
     inkscape:pageopacity="0.0"
     inkscape:pagecheckerboard="0"
     inkscape:deskcolor="#d1d1d1"
     inkscape:document-units="mm"
     showgrid="false"
     inkscape:zoom="6.6400135"
     inkscape:cx="8.9608252"
     inkscape:cy="106.32509"
     inkscape:window-width="1920"
     inkscape:window-height="975"
     inkscape:window-x="0"
     inkscape:window-y="0"
     inkscape:window-maximized="1"
     inkscape:current-layer="layer16" />
  <defs
     id="defs39749" />
  <g
     inkscape:groupmode="layer"
     id="layer14"
     inkscape:label="B_Copper"
     style="display:inline"
     sodipodi:insensitive="true">
    <path
       id="path41358"
       style="fill:#00cc00;fill-opacity:1;fill-rule:evenodd;stroke:none;stroke-linecap:round;stroke-linejoin:round;stroke-opacity:1"
       d="m 2.0200317,9.6397217 v 1.7001543 h 0.550354 v 3.363619 h -1.192692 v 1.732711 H 2.5951904 L 1.929598,17.101799 a 0.30000001,0.30000001 0 0 0 -0.020154,0.02274 0.30000001,0.30000001 0 0 0 -0.0031,0.0036 0.30000001,0.30000001 0 0 0 -0.034107,0.05478 0.30000001,0.30000001 0 0 0 -0.00207,0.0041 0.30000001,0.30000001 0 0 0 -0.028422,0.148828 v 7.353556 a 0.30000001,0.30000001 0 0 0 0.00672,0.06201 0.30000001,0.30000001 0 0 0 0.00207,0.0093 0.30000001,0.30000001 0 0 0 0.1023194,0.162264 0.30000001,0.30000001 0 0 0 0.00155,0.0015 0.30000001,0.30000001 0 0 0 0.053744,0.03411 0.30000001,0.30000001 0 0 0 0.00723,0.0031 0.30000001,0.30000001 0 0 0 0.054777,0.01912 0.30000001,0.30000001 0 0 0 0.00672,0.0021 0.30000001,0.30000001 0 0 0 0.063562,0.0072 h 0.4103109 l 1.0350789,1.035079 v 3.209106 H 2.6489339 A 0.85000002,0.85000002 0 0 0 1.8536336,28.684455 0.85000002,0.85000002 0 0 0 1.0035563,29.534532 0.85000002,0.85000002 0 0 0 1.8536336,30.38461 0.85000002,0.85000002 0 0 0 2.6489339,29.833739 h 1.1012248 l 0.1715657,0.172082 a 0.30000001,0.30000001 0 0 0 0.2258261,0.08785 h 6.3427655 a 0.30000001,0.30000001 0 0 0 0.176216,-0.05839 0.30000001,0.30000001 0 0 0 0.0031,-0.0021 0.30000001,0.30000001 0 0 0 0.03152,-0.02739 0.30000001,0.30000001 0 0 0 5.16e-4,-5.16e-4 l 2.0252,-2.023133 a 0.30000001,0.30000001 0 0 0 0.0078,-0.0078 0.30000001,0.30000001 0 0 0 0.0072,-0.0078 0.30000001,0.30000001 0 0 0 0.0036,-0.0036 0.30000001,0.30000001 0 0 0 0.0036,-0.0041 0.30000001,0.30000001 0 0 0 5.16e-4,-5.17e-4 0.30000001,0.30000001 0 0 0 0.0062,-0.0072 0.30000001,0.30000001 0 0 0 0,-5.16e-4 0.30000001,0.30000001 0 0 0 0.0093,-0.01189 0.30000001,0.30000001 0 0 0 0.02997,-0.05219 0.30000001,0.30000001 0 0 0 0.0015,-0.0026 0.30000001,0.30000001 0 0 0 0.01912,-0.05839 0.30000001,0.30000001 0 0 0 0.0021,-0.01034 0.30000001,0.30000001 0 0 0 0.0047,-0.06925 v -0.318327 a 0.69999999,0.69999999 0 0 0 0.399459,-0.632003 0.69999999,0.69999999 0 0 0 -0.700216,-0.700215 0.69999999,0.69999999 0 0 0 -0.699699,0.700215 0.69999999,0.69999999 0 0 0 0.400493,0.63252 v 0.208256 L 10.36526,29.494163 H 4.2596883 l -0.073897,-0.0739 v -3.518131 a 0.30000001,0.30000001 0 0 0 -5.167e-4,-0.01395 0.30000001,0.30000001 0 0 0 0,-5.16e-4 0.30000001,0.30000001 0 0 0 0,-5.17e-4 0.30000001,0.30000001 0 0 0 0,-5.17e-4 0.30000001,0.30000001 0 0 0 0,-5.17e-4 0.30000001,0.30000001 0 0 0 0,-5.17e-4 0.30000001,0.30000001 0 0 0 -0.00103,-0.01033 0.30000001,0.30000001 0 0 0 -5.167e-4,-0.0067 0.30000001,0.30000001 0 0 0 -0.00568,-0.03204 0.30000001,0.30000001 0 0 0 0,-5.17e-4 0.30000001,0.30000001 0 0 0 0,-5.17e-4 0.30000001,0.30000001 0 0 0 -0.0031,-0.01188 0.30000001,0.30000001 0 0 0 -0.00103,-0.0047 0.30000001,0.30000001 0 0 0 -0.011369,-0.03256 0.30000001,0.30000001 0 0 0 -0.0062,-0.01447 0.30000001,0.30000001 0 0 0 -0.00465,-0.0093 0.30000001,0.30000001 0 0 0 -0.0031,-0.0057 0.30000001,0.30000001 0 0 0 -0.00362,-0.0057 0.30000001,0.30000001 0 0 0 -0.00517,-0.0088 0.30000001,0.30000001 0 0 0 -0.016536,-0.02377 0.30000001,0.30000001 0 0 0 -0.00258,-0.0036 0.30000001,0.30000001 0 0 0 -0.00517,-0.0067 0.30000001,0.30000001 0 0 0 -0.00568,-0.0062 0.30000001,0.30000001 0 0 0 -0.0031,-0.0036 0.30000001,0.30000001 0 0 0 -0.00827,-0.0088 0.30000001,0.30000001 0 0 0 -0.00103,-5.17e-4 l -0.00517,-0.0052 a 0.30000001,0.30000001 0 0 0 -0.0062,-0.0057 l -1.190625,-1.190625 a 0.30000001,0.30000001 0 0 0 -0.038757,-0.03566 0.30000001,0.30000001 0 0 0 -0.00207,-0.0015 0.30000001,0.30000001 0 0 0 -0.030489,-0.02015 0.30000001,0.30000001 0 0 0 -0.00517,-0.0026 0.30000001,0.30000001 0 0 0 -0.067179,-0.02739 0.30000001,0.30000001 0 0 0 -0.00155,-5.17e-4 0.30000001,0.30000001 0 0 0 -0.076481,-0.0093 H 2.4411947 v -6.951513 l 1.002006,-1.00304 H 4.5025675 V 16.019694 H 5.9779297 V 15.120007 H 4.5025675 V 14.703495 H 3.1698324 V 11.339876 H 3.7196696 V 9.6397217 Z m 3.389974,0 A 0.85000002,0.85000002 0 0 0 4.5599284,10.489799 0.85000002,0.85000002 0 0 0 5.0095133,11.239107 V 13.61984 H 4.9025431 l -0.085783,0.01705 -0.072864,0.04858 -0.049093,0.07338 -0.017053,0.08578 v 0.450102 l 0.017053,0.0863 0.049093,0.07286 0.072864,0.04858 0.085783,0.01757 h 0.8500773 l 0.0863,-0.01757 0.072864,-0.04858 0.049093,-0.07286 0.017053,-0.0863 V 13.84463 l -0.017053,-0.08578 -0.049093,-0.07338 -0.072864,-0.04858 -0.028422,-0.0057 v -2.3926 A 0.85000002,0.85000002 0 0 0 6.2595662,10.489799 0.85000002,0.85000002 0 0 0 5.4100057,9.6397217 Z m 2.5398966,0 A 0.85000002,0.85000002 0 0 0 7.099825,10.489799 0.85000002,0.85000002 0 0 0 7.7499146,11.315588 v 5.553667 H 5.9779297 v -0.02429 l -0.017053,-0.0863 -0.049093,-0.07286 -0.072864,-0.04909 -0.0863,-0.01705 H 4.9025431 l -0.085783,0.01705 -0.072864,0.04909 -0.049093,0.07286 -0.017053,0.0863 v 0.449585 l 0.017053,0.0863 0.049093,0.07286 0.072864,0.04909 0.085783,0.01705 h 0.8500773 l 0.0863,-0.01705 0.072864,-0.04909 0.049093,-0.07286 0.017053,-0.0863 v -0.02481 h 1.9714559 1.7404622 v 1.149801 l 0.01912,0.09612 0.05426,0.08113 0.080615,0.05426 0.096118,0.0186 h 1.0996745 l 0.09612,-0.0186 0.08062,-0.05426 0.05426,-0.08113 0.01344,-0.06821 2.053621,2.052071 v 1.592668 l -0.834057,0.83354 h -0.337964 a 0.86360002,0.86360002 0 0 0 -0.839742,-0.663525 0.86360002,0.86360002 0 0 0 -0.863514,0.863513 0.86360002,0.86360002 0 0 0 0.863514,0.863513 0.86360002,0.86360002 0 0 0 0.839742,-0.663008 h 0.420129 a 0.2,0.2 0 0 0 0.04238,-0.0052 0.2,0.2 0 0 0 10e-4,0 0.2,0.2 0 0 0 0.10387,-0.06046 l 0.94673,-0.946163 a 0.2,0.2 0 0 0 0.02377,-0.02894 0.2,0.2 0 0 0 0.0088,-0.01499 0.2,0.2 0 0 0 0.0047,-0.0083 0.2,0.2 0 0 0 0.0072,-0.01654 0.2,0.2 0 0 0 0.0031,-0.0088 0.2,0.2 0 0 0 0.0052,-0.01757 0.2,0.2 0 0 0 0.0015,-0.0088 0.2,0.2 0 0 0 0.0041,-0.03669 v -1.755965 a 0.2,0.2 0 0 0 -0.0041,-0.03669 0.2,0.2 0 0 0 -0.0031,-0.01447 0.2,0.2 0 0 0 -0.0047,-0.01447 0.2,0.2 0 0 0 -0.0052,-0.01395 0.2,0.2 0 0 0 -0.02222,-0.03824 0.2,0.2 0 0 0 -0.01912,-0.02274 L 11.28975,17.88728 v -1.567346 l -0.01912,-0.0956 -0.05426,-0.08113 -0.08062,-0.05426 -0.09612,-0.01912 H 9.9399618 l -0.096118,0.01912 -0.080615,0.05426 -0.05426,0.08113 -0.01912,0.0956 v 0.549321 H 8.1504069 V 11.315588 A 0.85000002,0.85000002 0 0 0 8.7999797,10.489799 0.85000002,0.85000002 0 0 0 7.9499023,9.6397217 Z m 1.9900595,2.8303183 -0.096118,0.0186 -0.080615,0.05426 -0.05426,0.08113 -0.01912,0.0956 v 0.927075 H 8.9648275 a 0.40000001,0.40000001 0 0 0 -0.3984253,0.398426 0.40000001,0.40000001 0 0 0 0.3984253,0.399975 h 0.7250203 v 0.374654 l 0.01912,0.0956 0.05426,0.08113 0.080615,0.05426 0.096118,0.01912 h 1.0996742 l 0.09612,-0.01912 0.08062,-0.05426 0.05426,-0.08113 0.01912,-0.0956 v -2.10013 l -0.01912,-0.0956 -0.05426,-0.08113 -0.08062,-0.05426 -0.09612,-0.0186 z M 3.705717,19.72231 A 0.86360002,0.86360002 0 0 0 2.8422038,20.585824 0.86360002,0.86360002 0 0 0 3.705717,21.449337 0.86360002,0.86360002 0 0 0 4.5692301,20.585824 0.86360002,0.86360002 0 0 0 3.705717,19.72231 Z m 2.5398966,0 a 0.86360002,0.86360002 0 0 0 -0.8635132,0.863514 0.86360002,0.86360002 0 0 0 0.8635132,0.863513 0.86360002,0.86360002 0 0 0 0.86403,-0.863513 0.86360002,0.86360002 0 0 0 -0.86403,-0.863514 z m 2.5404134,0 a 0.86360002,0.86360002 0 0 0 -0.8640299,0.863514 0.86360002,0.86360002 0 0 0 0.1865519,0.535884 l -0.6748942,0.675411 a 0.1,0.1 0 0 0 -0.00568,0.0067 0.1,0.1 0 0 0 -0.0062,0.0072 0.1,0.1 0 0 0 -0.011369,0.02274 0.1,0.1 0 0 0 -0.00207,0.0078 0.1,0.1 0 0 0 -0.00258,0.01757 0.1,0.1 0 0 0 -0.00155,0.0083 v 6.731889 a 0.1,0.1 0 0 0 0.018604,0.06925 0.1,0.1 0 0 0 0,5.17e-4 0.1,0.1 0 0 0 5.168e-4,5.17e-4 0.1,0.1 0 0 0 0.010335,0.01188 l 0.061495,0.06149 a 0.30000001,0.30000001 0 0 0 -0.029456,0.129191 0.30000001,0.30000001 0 0 0 0.30024,0.299724 0.30000001,0.30000001 0 0 0 0.2997234,-0.299724 0.30000001,0.30000001 0 0 0 -0.2997234,-0.30024 0.30000001,0.30000001 0 0 0 -0.129191,0.02946 l -0.033073,-0.03307 v -6.66009 L 8.2496257,21.262785 A 0.86360002,0.86360002 0 0 0 8.786027,21.449337 0.86360002,0.86360002 0 0 0 9.6495402,20.585824 0.86360002,0.86360002 0 0 0 8.786027,19.72231 Z m 2.539897,0 a 0.86360002,0.86360002 0 0 0 -0.863514,0.863514 0.86360002,0.86360002 0 0 0 0.863514,0.863513 0.86360002,0.86360002 0 0 0 0.863513,-0.863513 0.86360002,0.86360002 0 0 0 -0.863513,-0.863514 z m -8.4837202,2.539897 v 1.727026 h 1.7270263 v -1.727026 z m 3.4034098,0 a 0.86360002,0.86360002 0 0 0 -0.8635132,0.863513 0.86360002,0.86360002 0 0 0 0.8635132,0.863513 0.86360002,0.86360002 0 0 0 0.86403,-0.863513 0.86360002,0.86360002 0 0 0 -0.86403,-0.863513 z m 2.5404134,0 A 0.86360002,0.86360002 0 0 0 7.9219971,23.12572 0.86360002,0.86360002 0 0 0 8.786027,23.989233 0.86360002,0.86360002 0 0 0 9.6495402,23.12572 0.86360002,0.86360002 0 0 0 8.786027,22.262207 Z m -7.7824707,3.88245 v 1.700155 h 1.7001546 v -1.700155 z m 11.5181597,5.031218 a 0.69999999,0.69999999 0 0 0 -0.699699,0.699699 0.69999999,0.69999999 0 0 0 0.500228,0.67076 v 2.244307 l -0.475423,0.47594 a 0.52499998,0.52499998 0 0 0 -0.341064,-0.12609 0.52499998,0.52499998 0 0 0 -0.525033,0.523482 v 0.451135 a 0.52499998,0.52499998 0 0 0 0.326078,0.486275 v 2.681491 l -0.887801,0.886767 a 0.85000002,0.85000002 0 0 0 -0.516764,-0.1757 0.85000002,0.85000002 0 0 0 -0.8495606,0.851628 v 0.250114 a 0.85000002,0.85000002 0 0 0 0.8495606,0.84956 0.85000002,0.85000002 0 0 0 0.849561,-0.84956 V 40.845569 A 0.85000002,0.85000002 0 0 0 10.671183,40.4828 l 0.96635,-0.966866 a 0.2,0.2 0 0 0 0.0052,-0.0041 l 0.0036,-0.0041 a 0.2,0.2 0 0 0 0.0078,-0.0083 0.2,0.2 0 0 0 0.0021,-0.0021 0.2,0.2 0 0 0 0.0052,-0.0062 0.2,0.2 0 0 0 0.0031,-0.0036 0.2,0.2 0 0 0 0.0036,-0.0052 0.2,0.2 0 0 0 0.0057,-0.0083 0.2,0.2 0 0 0 10e-4,-0.0015 0.2,0.2 0 0 0 0.01033,-0.0186 0.2,0.2 0 0 0 5.17e-4,-10e-4 0.2,0.2 0 0 0 0.0093,-0.02325 0.2,0.2 0 0 0 0.0026,-0.0078 0.2,0.2 0 0 0 10e-4,-0.0047 0.2,0.2 0 0 0 0.0015,-0.0062 0.2,0.2 0 0 0 0.0015,-0.0072 0.2,0.2 0 0 0 10e-4,-0.0041 0.2,0.2 0 0 0 0.0021,-0.02119 0.2,0.2 0 0 0 0,-5.17e-4 0.2,0.2 0 0 0 0,-5.17e-4 0.2,0.2 0 0 0 0,-5.16e-4 0.2,0.2 0 0 0 0,-5.17e-4 0.2,0.2 0 0 0 0,-5.17e-4 0.2,0.2 0 0 0 0,-5.17e-4 0.2,0.2 0 0 0 0,-5.16e-4 0.2,0.2 0 0 0 0,-5.17e-4 0.2,0.2 0 0 0 0,-5.17e-4 0.2,0.2 0 0 0 0,-5.17e-4 0.2,0.2 0 0 0 0,-5.16e-4 0.2,0.2 0 0 0 0,-5.17e-4 0.2,0.2 0 0 0 0,-5.17e-4 0.2,0.2 0 0 0 5.17e-4,-0.0057 0.2,0.2 0 0 0 0,-5.17e-4 0.2,0.2 0 0 0 0,-5.17e-4 v -2.763656 a 0.52499998,0.52499998 0 0 0 0.326078,-0.486275 v -0.451135 a 0.52499998,0.52499998 0 0 0 -5.17e-4,-0.01602 l 0.625802,-0.625285 a 0.2,0.2 0 0 0 0.0072,-0.0072 0.2,0.2 0 0 0 0.0047,-0.0041 0.2,0.2 0 0 0 0.0021,-0.0026 0.2,0.2 0 0 0 0.01395,-0.01705 0.2,0.2 0 0 0 0.0036,-0.0052 0.2,0.2 0 0 0 0.0036,-0.0052 0.2,0.2 0 0 0 0.0015,-0.0031 0.2,0.2 0 0 0 0.02015,-0.04341 0.2,0.2 0 0 0 0.0031,-0.01189 0.2,0.2 0 0 0 0.0016,-0.0062 0.2,0.2 0 0 0 0.0031,-0.0186 0.2,0.2 0 0 0 0,-5.17e-4 0.2,0.2 0 0 0 0,-5.16e-4 0.2,0.2 0 0 0 0,-5.17e-4 0.2,0.2 0 0 0 0,-5.17e-4 0.2,0.2 0 0 0 0.001,-0.0078 0.2,0.2 0 0 0 0,-5.17e-4 0.2,0.2 0 0 0 0,-5.17e-4 0.2,0.2 0 0 0 0,-5.17e-4 0.2,0.2 0 0 0 0,-5.16e-4 0.2,0.2 0 0 0 0,-5.17e-4 0.2,0.2 0 0 0 5.17e-4,-0.0067 0.2,0.2 0 0 0 0,-0.0016 0.2,0.2 0 0 0 0,-0.0036 0.2,0.2 0 0 0 0,-0.0036 0.2,0.2 0 0 0 0,-0.001 v -2.322855 a 0.69999999,0.69999999 0 0 0 0.499194,-0.67076 0.69999999,0.69999999 0 0 0 -0.700216,-0.699699 z m -4.0808875,3.964099 v 0.991671 l -3.6809123,3.680912 a 0.2,0.2 0 0 0 -0.00103,0.001 0.2,0.2 0 0 0 -0.045992,0.07286 0.2,0.2 0 0 0 -0.00103,0.0047 0.2,0.2 0 0 0 -0.0093,0.03876 0.2,0.2 0 0 0 -5.167e-4,0.0072 0.2,0.2 0 0 0 -0.00103,0.01602 v 0.04186 H 4.3015462 l -0.095601,0.0186 -0.081132,0.05426 -0.05426,0.08113 -0.018604,0.0956 v 1.450041 l 0.018604,0.09612 0.05426,0.08062 0.081132,0.05426 0.095601,0.01912 h 1.2004435 l 0.095601,-0.01912 0.081132,-0.05426 0.05426,-0.08062 0.018604,-0.09612 v -1.450041 l -0.018604,-0.0956 -0.05426,-0.08113 -0.081132,-0.05426 -0.095601,-0.0186 H 5.1438721 l 3.3553507,-3.355351 h 0.9916708 v -1.49965 z m 1.7957555,5.17e-4 a 0.52499998,0.52499998 0 0 0 -0.5255488,0.523482 v 0.451135 a 0.52499998,0.52499998 0 0 0 0.3240108,0.485242 v 1.452624 l -2.1161495,2.11615 A 0.85000002,0.85000002 0 0 0 7.4021322,39.993941 0.85000002,0.85000002 0 0 0 6.5525716,40.845569 v 0.250114 a 0.85000002,0.85000002 0 0 0 0.8495606,0.84956 0.85000002,0.85000002 0 0 0 0.8500773,-0.84956 V 40.845569 A 0.85000002,0.85000002 0 0 0 8.1715942,40.4828 l 2.2055498,-2.20555 a 0.2,0.2 0 0 0 0.02015,-0.02377 0.2,0.2 0 0 0 5.17e-4,-5.17e-4 0.2,0.2 0 0 0 0.01602,-0.02584 0.2,0.2 0 0 0 0.0036,-0.0083 0.2,0.2 0 0 0 0.0155,-0.05116 0.2,0.2 0 0 0 5.17e-4,-0.0036 0.2,0.2 0 0 0 0.0021,-0.02739 0.2,0.2 0 0 0 0,-5.16e-4 0.2,0.2 0 0 0 0,-5.17e-4 v -1.534274 a 0.52499998,0.52499998 0 0 0 0.326078,-0.486275 v -0.451135 a 0.52499998,0.52499998 0 0 0 -0.525033,-0.523482 z" />
  </g>
  <g
     inkscape:groupmode="layer"
     id="layer7"
     inkscape:label="B_Mask"
     transform="translate(-12.69158,-83.70396)"
     style="display:inline"
     sodipodi:insensitive="true">
    <path
       id="bMask"
       style="color:#000000;overflow:visible;fill:#ffffff;stroke:none;stroke-width:0.3;stroke-linecap:round;stroke-linejoin:round;paint-order:markers fill stroke;stop-color:#000000"
       d="M 12.69158,83.70396 V 128.7038 H 27.691702 V 83.70396 Z m 2.02004,9.639721 h 1.69963 v 1.700155 h -1.69963 z m 3.38997,0 c 0.4693,2.43e-4 0.849603,0.380777 0.84956,0.850077 4.3e-5,0.469301 -0.38026,0.849835 -0.84956,0.850078 -0.469503,4.4e-5 -0.850123,-0.380574 -0.85008,-0.850078 -4.3e-5,-0.469503 0.380576,-0.850121 0.85008,-0.850077 z m 2.5399,0 c 0.469501,-4e-5 0.850115,0.380577 0.850072,0.850077 4.3e-5,0.469501 -0.380572,0.850118 -0.850072,0.850078 -0.469503,4.4e-5 -0.850123,-0.380574 -0.85008,-0.850078 -4.3e-5,-0.469503 0.380576,-0.850121 0.85008,-0.850077 z m 1.990054,2.830318 h 1.099676 l 0.09612,0.0186 0.08061,0.05426 0.05426,0.08113 0.01912,0.0956 v 2.10013 l -0.01912,0.0956 -0.05426,0.08113 -0.08061,0.05426 -0.09612,0.01912 h -1.099676 l -0.09612,-0.01912 -0.08061,-0.05426 -0.05426,-0.08113 -0.01912,-0.0956 v -2.10013 l 0.01912,-0.0956 0.05426,-0.08113 0.08061,-0.05426 z m -5.037414,1.1498 h 0.85007 l 0.0863,0.01705 0.07287,0.04858 0.04909,0.07338 0.01705,0.08578 v 0.450101 l -0.01705,0.0863 -0.04909,0.07286 -0.07287,0.04858 -0.0863,0.01757 h -0.85007 l -0.08579,-0.01757 -0.07286,-0.04858 -0.04909,-0.07286 -0.01706,-0.0863 v -0.450101 l 0.01706,-0.08578 0.04909,-0.07338 0.07286,-0.04858 z m -3.52485,1.083655 h 3.12487 v 0.416512 h 1.47536 v 0.899687 h -1.47536 v 0.416517 h -3.12487 z m 8.562264,1.366325 h 1.099676 l 0.09612,0.01912 0.08061,0.05426 0.05426,0.08113 0.01912,0.0956 v 2.09961 l -0.01912,0.0961 -0.05426,0.0811 -0.08061,0.0543 -0.09612,0.0186 h -1.099676 l -0.09612,-0.0186 -0.08061,-0.0543 -0.05426,-0.0811 -0.01912,-0.0961 v -2.09961 l 0.01912,-0.0956 0.05426,-0.08113 0.08061,-0.05426 z m -5.037414,0.549841 h 0.85007 l 0.0863,0.017 0.07287,0.0491 0.04909,0.0729 0.01705,0.0863 v 0.44958 l -0.01705,0.0863 -0.04909,0.0729 -0.07287,0.0491 -0.0863,0.017 h -0.85007 l -0.08579,-0.017 -0.07286,-0.0491 -0.04909,-0.0729 -0.01706,-0.0863 v -0.44958 l 0.01706,-0.0863 0.04909,-0.0729 0.07286,-0.0491 z m -1.19683,3.10265 c 0.476884,5e-5 0.863462,0.38663 0.86351,0.86351 -4.8e-5,0.47689 -0.386626,0.86347 -0.86351,0.86352 -0.476884,-5e-5 -0.863462,-0.38663 -0.86351,-0.86352 4.8e-5,-0.47688 0.386626,-0.86346 0.86351,-0.86351 z m 2.5399,0 c 0.477087,-2.4e-4 0.863982,0.38643 0.86403,0.86351 -4.8e-5,0.47709 -0.386943,0.86375 -0.86403,0.86352 -0.476888,-5e-5 -0.863472,-0.38663 -0.86352,-0.86352 4.8e-5,-0.47689 0.386632,-0.86347 0.86352,-0.86351 z m 2.54041,0 c 0.476886,5e-5 0.863465,0.38663 0.863514,0.86351 -4.9e-5,0.47689 -0.386628,0.86347 -0.863514,0.86352 -0.477087,2.3e-4 -0.863982,-0.38643 -0.86403,-0.86352 4.8e-5,-0.47708 0.386943,-0.86375 0.86403,-0.86351 z m 2.539897,0 c 0.476885,5e-5 0.863465,0.38663 0.863513,0.86351 -4.8e-5,0.47689 -0.386628,0.86347 -0.863513,0.86352 -0.476885,-5e-5 -0.863465,-0.38663 -0.863513,-0.86352 4.8e-5,-0.47688 0.386628,-0.86346 0.863513,-0.86351 z m -8.483717,2.5399 h 1.72702 v 1.72702 h -1.72702 z m 3.40341,0 c 0.477087,-2.4e-4 0.863982,0.38642 0.86403,0.86351 -4.8e-5,0.47709 -0.386943,0.86375 -0.86403,0.86351 -0.476888,-4e-5 -0.863472,-0.38662 -0.86352,-0.86351 4.8e-5,-0.47689 0.386632,-0.86347 0.86352,-0.86351 z m 2.54041,0 c 0.476886,4e-5 0.863465,0.38662 0.863514,0.86351 -4.9e-5,0.47688 -0.386628,0.86346 -0.863514,0.86351 -0.477087,2.4e-4 -0.863982,-0.38642 -0.86403,-0.86351 4.8e-5,-0.47709 0.386943,-0.86375 0.86403,-0.86351 z m 2.539897,0 c 0.476885,4e-5 0.863465,0.38662 0.863513,0.86351 -4.8e-5,0.47688 -0.386628,0.86346 -0.863513,0.86351 -0.476885,-5e-5 -0.863465,-0.38663 -0.863513,-0.86351 4.8e-5,-0.47689 0.386628,-0.86347 0.863513,-0.86351 z m 1.195793,3.83335 c 0.386768,-1.2e-4 0.700335,0.31345 0.700216,0.70022 1.19e-4,0.38677 -0.313448,0.70033 -0.700216,0.70022 -0.386566,-1.7e-4 -0.699818,-0.31365 -0.699699,-0.70022 -1.19e-4,-0.38657 0.313133,-0.70005 0.699699,-0.70022 z m -11.51816,0.0491 h 1.70015 v 1.70016 h -1.70015 z m 0.85008,2.5399 c 0.469499,-4e-5 0.850113,0.38058 0.85007,0.85008 4.3e-5,0.4695 -0.380571,0.85011 -0.85007,0.85007 -0.469503,5e-5 -0.850123,-0.38057 -0.85008,-0.85007 -4.3e-5,-0.46951 0.380577,-0.85012 0.85008,-0.85008 z m 10.66808,2.49132 c 0.386566,-1.2e-4 0.70005,0.31313 0.700216,0.6997 1.19e-4,0.38677 -0.313448,0.70034 -0.700216,0.70022 -0.386566,-1.7e-4 -0.699818,-0.31365 -0.699699,-0.70022 1.66e-4,-0.38636 0.313335,-0.69953 0.699699,-0.6997 z m -4.080889,3.9641 h 1.050065 v 1.49965 h -1.050065 z m 1.79524,0 c 0,-0.29018 0.525568,0.23486 0.52555,0.52503 v 0.44959 c 1.8e-5,0.29018 -0.235373,0.52534 -0.52555,0.52503 -0.290177,3.1e-4 -0.525568,-0.23485 -0.52555,-0.52503 v -0.44958 c -1.7e-5,-0.29018 0.52555,-0.23486 0.52555,-0.52504 z m 1.26969,0 c 0,-0.29018 0.525568,0.23486 0.52555,0.52503 v 0.44959 c 1.8e-5,0.29018 -0.235373,0.52534 -0.52555,0.52503 -0.290177,3.1e-4 -0.525567,-0.23485 -0.525549,-0.52503 v -0.44958 c -1.8e-5,-0.29018 0.525549,-0.23486 0.525549,-0.52504 z m -7.204211,4.855 h 1.20044 l 0.0956,0.0186 0.08114,0.0543 0.05426,0.0811 0.0186,0.0956 v 1.45004 l -0.0186,0.0961 -0.05426,0.0806 -0.08114,0.0543 -0.0956,0.0191 h -1.20044 l -0.0956,-0.0191 -0.08113,-0.0543 -0.05426,-0.0806 -0.01861,-0.0961 v -1.45004 l 0.01861,-0.0956 0.05426,-0.0811 0.08113,-0.0543 z m 3.10059,5.2e-4 c 0.469099,2.4e-4 0.849318,0.38046 0.84956,0.84956 v 0.2496 c 4.3e-5,0.4693 -0.38026,0.84983 -0.84956,0.85007 -0.4693,-2.4e-4 -0.849603,-0.38077 -0.84956,-0.85007 v -0.2496 c 2.42e-4,-0.4691 0.380461,-0.84932 0.84956,-0.84956 z m 2.500102,0 c 0.469098,2.4e-4 0.849318,0.38046 0.84956,0.84956 v 0.2496 c 4.3e-5,0.4693 -0.38026,0.84983 -0.84956,0.85007 -0.469301,-2.4e-4 -0.849604,-0.38077 -0.849561,-0.85007 v -0.2496 c 2.42e-4,-0.4691 0.380461,-0.84932 0.849561,-0.84956 z"
       sodipodi:nodetypes="ccccccccccccccccccccccccccccccccccccccccccccccccccccccccccccccccccccccccccccccccccccccccccccccccccccccccccccccccccccccccccccccccccccccccccccccccccccccccccccccccccccccccccccccccccscccccssscccccssccccccccccccccccccccccccccccccccccc" />
  </g>
  <g
     inkscape:groupmode="layer"
     id="layer8"
     inkscape:label="B_Silk"
     style="display:inline"
     sodipodi:insensitive="true">
    <g
       id="g54759">
      <text
         x="146.964"
         y="74.667999"
         transform="matrix(0,1,1,0,-60.4782,-131.3942)"
         textLength="2.2024"
         font-size="1.3333px"
         lengthAdjust="spacingAndGlyphs"
         text-anchor="middle"
         opacity="0"
         stroke-opacity="0"
         id="text41989"
         style="fill:none;stroke:#000000;stroke-width:0.15;stroke-linecap:round;stroke-linejoin:round">C2</text>
      <path
         d="M 14.0494,15.4031 14.097,15.3555"
         id="path41995"
         style="fill:none;stroke:#000000;stroke-width:0.15;stroke-linecap:round;stroke-linejoin:round;stroke-opacity:1" />
      <path
         d="m 14.097,15.3555 0.0476,-0.1428"
         id="path41997"
         style="fill:none;stroke:#000000;stroke-width:0.15;stroke-linecap:round;stroke-linejoin:round;stroke-opacity:1" />
      <path
         d="M 14.1446,15.2127 V 15.1174"
         id="path41999"
         style="fill:none;stroke:#000000;stroke-width:0.15;stroke-linecap:round;stroke-linejoin:round;stroke-opacity:1" />
      <path
         d="M 14.1446,15.1174 14.097,14.9746"
         id="path42001"
         style="fill:none;stroke:#000000;stroke-width:0.15;stroke-linecap:round;stroke-linejoin:round;stroke-opacity:1" />
      <path
         d="M 14.097,14.9746 14.0018,14.8793"
         id="path42003"
         style="fill:none;stroke:#000000;stroke-width:0.15;stroke-linecap:round;stroke-linejoin:round;stroke-opacity:1" />
      <path
         d="M 14.0018,14.8793 13.9065,14.8317"
         id="path42005"
         style="fill:none;stroke:#000000;stroke-width:0.15;stroke-linecap:round;stroke-linejoin:round;stroke-opacity:1" />
      <path
         d="M 13.9065,14.8317 13.716,14.7841"
         id="path42007"
         style="fill:none;stroke:#000000;stroke-width:0.15;stroke-linecap:round;stroke-linejoin:round;stroke-opacity:1" />
      <path
         d="M 13.716,14.7841 H 13.5732"
         id="path42009"
         style="fill:none;stroke:#000000;stroke-width:0.15;stroke-linecap:round;stroke-linejoin:round;stroke-opacity:1" />
      <path
         d="m 13.5732,14.7841 -0.1905,0.0476"
         id="path42011"
         style="fill:none;stroke:#000000;stroke-width:0.15;stroke-linecap:round;stroke-linejoin:round;stroke-opacity:1" />
      <path
         d="m 13.3827,14.8317 -0.0952,0.0476"
         id="path42013"
         style="fill:none;stroke:#000000;stroke-width:0.15;stroke-linecap:round;stroke-linejoin:round;stroke-opacity:1" />
      <path
         d="m 13.2875,14.8793 -0.0953,0.0953"
         id="path42015"
         style="fill:none;stroke:#000000;stroke-width:0.15;stroke-linecap:round;stroke-linejoin:round;stroke-opacity:1" />
      <path
         d="m 13.1922,14.9746 -0.0476,0.1428"
         id="path42017"
         style="fill:none;stroke:#000000;stroke-width:0.15;stroke-linecap:round;stroke-linejoin:round;stroke-opacity:1" />
      <path
         d="m 13.1446,15.1174 v 0.0953"
         id="path42019"
         style="fill:none;stroke:#000000;stroke-width:0.15;stroke-linecap:round;stroke-linejoin:round;stroke-opacity:1" />
      <path
         d="m 13.1446,15.2127 0.0476,0.1428"
         id="path42021"
         style="fill:none;stroke:#000000;stroke-width:0.15;stroke-linecap:round;stroke-linejoin:round;stroke-opacity:1" />
      <path
         d="m 13.1922,15.3555 0.0477,0.0476"
         id="path42023"
         style="fill:none;stroke:#000000;stroke-width:0.15;stroke-linecap:round;stroke-linejoin:round;stroke-opacity:1" />
      <path
         d="m 13.2399,15.7841 -0.0477,0.0476"
         id="path42025"
         style="fill:none;stroke:#000000;stroke-width:0.15;stroke-linecap:round;stroke-linejoin:round;stroke-opacity:1" />
      <path
         d="m 13.1922,15.8317 -0.0476,0.0952"
         id="path42027"
         style="fill:none;stroke:#000000;stroke-width:0.15;stroke-linecap:round;stroke-linejoin:round;stroke-opacity:1" />
      <path
         d="M 13.1446,15.9269 V 16.165"
         id="path42029"
         style="fill:none;stroke:#000000;stroke-width:0.15;stroke-linecap:round;stroke-linejoin:round;stroke-opacity:1" />
      <path
         d="m 13.1446,16.165 0.0476,0.0953"
         id="path42031"
         style="fill:none;stroke:#000000;stroke-width:0.15;stroke-linecap:round;stroke-linejoin:round;stroke-opacity:1" />
      <path
         d="m 13.1922,16.2603 0.0477,0.0476"
         id="path42033"
         style="fill:none;stroke:#000000;stroke-width:0.15;stroke-linecap:round;stroke-linejoin:round;stroke-opacity:1" />
      <path
         d="m 13.2399,16.3079 0.0952,0.0476"
         id="path42035"
         style="fill:none;stroke:#000000;stroke-width:0.15;stroke-linecap:round;stroke-linejoin:round;stroke-opacity:1" />
      <path
         d="m 13.3351,16.3555 h 0.0952"
         id="path42037"
         style="fill:none;stroke:#000000;stroke-width:0.15;stroke-linecap:round;stroke-linejoin:round;stroke-opacity:1" />
      <path
         d="m 13.4303,16.3555 0.1429,-0.0476"
         id="path42039"
         style="fill:none;stroke:#000000;stroke-width:0.15;stroke-linecap:round;stroke-linejoin:round;stroke-opacity:1" />
      <path
         d="m 13.5732,16.3079 0.5714,-0.5714"
         id="path42041"
         style="fill:none;stroke:#000000;stroke-width:0.15;stroke-linecap:round;stroke-linejoin:round;stroke-opacity:1" />
      <path
         d="m 14.1446,15.7365 v 0.619"
         id="path42043"
         style="fill:none;stroke:#000000;stroke-width:0.15;stroke-linecap:round;stroke-linejoin:round;stroke-opacity:1" />
      <text
         x="136.65199"
         y="71.167999"
         transform="matrix(-1,0,0,1,140.0298,-58.5982)"
         textLength="2.25"
         font-size="1.3333px"
         lengthAdjust="spacingAndGlyphs"
         text-anchor="middle"
         opacity="0"
         stroke-opacity="0"
         id="text42047"
         style="fill:none;stroke:#000000;stroke-width:0.15;stroke-linecap:round;stroke-linejoin:round">U4</text>
      <path
         d="m 4.1397,11.5246 v 0.8095"
         id="path42051"
         style="fill:none;stroke:#000000;stroke-width:0.15;stroke-linecap:round;stroke-linejoin:round;stroke-opacity:1" />
      <path
         d="M 4.1397,12.3341 4.0921,12.4294"
         id="path42053"
         style="fill:none;stroke:#000000;stroke-width:0.15;stroke-linecap:round;stroke-linejoin:round;stroke-opacity:1" />
      <path
         d="M 4.0921,12.4294 4.0445,12.477"
         id="path42055"
         style="fill:none;stroke:#000000;stroke-width:0.15;stroke-linecap:round;stroke-linejoin:round;stroke-opacity:1" />
      <path
         d="M 4.0445,12.477 3.9492,12.5246"
         id="path42057"
         style="fill:none;stroke:#000000;stroke-width:0.15;stroke-linecap:round;stroke-linejoin:round;stroke-opacity:1" />
      <path
         d="M 3.9492,12.5246 H 3.7588"
         id="path42059"
         style="fill:none;stroke:#000000;stroke-width:0.15;stroke-linecap:round;stroke-linejoin:round;stroke-opacity:1" />
      <path
         d="M 3.7588,12.5246 3.6635,12.477"
         id="path42061"
         style="fill:none;stroke:#000000;stroke-width:0.15;stroke-linecap:round;stroke-linejoin:round;stroke-opacity:1" />
      <path
         d="M 3.6635,12.477 3.6159,12.4294"
         id="path42063"
         style="fill:none;stroke:#000000;stroke-width:0.15;stroke-linecap:round;stroke-linejoin:round;stroke-opacity:1" />
      <path
         d="M 3.6159,12.4294 3.5683,12.3341"
         id="path42065"
         style="fill:none;stroke:#000000;stroke-width:0.15;stroke-linecap:round;stroke-linejoin:round;stroke-opacity:1" />
      <path
         d="M 3.5683,12.3341 V 11.5246"
         id="path42067"
         style="fill:none;stroke:#000000;stroke-width:0.15;stroke-linecap:round;stroke-linejoin:round;stroke-opacity:1" />
      <path
         d="m 2.6635,11.858 v 0.6666"
         id="path42069"
         style="fill:none;stroke:#000000;stroke-width:0.15;stroke-linecap:round;stroke-linejoin:round;stroke-opacity:1" />
      <path
         d="m 2.9016,11.477 0.2381,0.7143"
         id="path42071"
         style="fill:none;stroke:#000000;stroke-width:0.15;stroke-linecap:round;stroke-linejoin:round;stroke-opacity:1" />
      <path
         d="M 3.1397,12.1913 H 2.5207"
         id="path42073"
         style="fill:none;stroke:#000000;stroke-width:0.15;stroke-linecap:round;stroke-linejoin:round;stroke-opacity:1" />
      <path
         d="m 8.2298,13.3098 h 1.2"
         id="path42079"
         style="fill:none;stroke:#000000;stroke-width:0.12;stroke-linecap:round;stroke-linejoin:round;stroke-opacity:1" />
      <path
         d="M 8.2298,16.7654 V 13.3098"
         id="path42081"
         style="fill:none;stroke:#000000;stroke-width:0.12;stroke-linecap:round;stroke-linejoin:round;stroke-opacity:1" />
      <path
         d="M 9.2942,17.8298 8.2298,16.7654"
         id="path42083"
         style="fill:none;stroke:#000000;stroke-width:0.12;stroke-linecap:round;stroke-linejoin:round;stroke-opacity:1" />
      <path
         d="M 9.2942,17.8298 H 9.4298"
         id="path42085"
         style="fill:none;stroke:#000000;stroke-width:0.12;stroke-linecap:round;stroke-linejoin:round;stroke-opacity:1" />
      <path
         d="M 11.6854,17.8298 H 11.5498"
         id="path42087"
         style="fill:none;stroke:#000000;stroke-width:0.12;stroke-linecap:round;stroke-linejoin:round;stroke-opacity:1" />
      <path
         d="m 11.6854,17.8298 1.0644,-1.0644"
         id="path42089"
         style="fill:none;stroke:#000000;stroke-width:0.12;stroke-linecap:round;stroke-linejoin:round;stroke-opacity:1" />
      <path
         d="m 12.0498,18.5698 v -0.5"
         id="path42091"
         style="fill:none;stroke:#000000;stroke-width:0.12;stroke-linecap:round;stroke-linejoin:round;stroke-opacity:1" />
      <path
         d="m 12.2998,18.3198 h -0.5"
         id="path42093"
         style="fill:none;stroke:#000000;stroke-width:0.12;stroke-linecap:round;stroke-linejoin:round;stroke-opacity:1" />
      <path
         d="m 12.7498,13.3098 h -1.2"
         id="path42095"
         style="fill:none;stroke:#000000;stroke-width:0.12;stroke-linecap:round;stroke-linejoin:round;stroke-opacity:1" />
      <path
         d="M 12.7498,16.7654 V 13.3098"
         id="path42097"
         style="fill:none;stroke:#000000;stroke-width:0.12;stroke-linecap:round;stroke-linejoin:round;stroke-opacity:1" />
      <path
         d="m 2.0178,14.1898 v -0.98"
         id="path42099"
         style="fill:none;stroke:#000000;stroke-width:0.12;stroke-linecap:round;stroke-linejoin:round;stroke-opacity:1" />
      <path
         d="m 2.0178,16.9498 v 0.98"
         id="path42101"
         style="fill:none;stroke:#000000;stroke-width:0.12;stroke-linecap:round;stroke-linejoin:round;stroke-opacity:1" />
      <path
         d="m 2.0178,17.9298 h 2.72"
         id="path42103"
         style="fill:none;stroke:#000000;stroke-width:0.12;stroke-linecap:round;stroke-linejoin:round;stroke-opacity:1" />
      <path
         d="m 4.5978,13.2098 h -2.58"
         id="path42105"
         style="fill:none;stroke:#000000;stroke-width:0.12;stroke-linecap:round;stroke-linejoin:round;stroke-opacity:1" />
      <g
         id="path42107">
        <path
           style="color:#000000;fill:#000000;fill-rule:evenodd;stroke-width:0.12;stroke-linecap:round;stroke-linejoin:round;-inkscape-stroke:none"
           d="m 5.1478,13.3598 -0.24,-0.33 h 0.48 z"
           id="path53015" />
        <path
           style="color:#000000;fill:#000000;fill-rule:evenodd;stroke-linecap:round;stroke-linejoin:round;-inkscape-stroke:none"
           d="m 4.9082031,12.970703 c -0.047819,6.28e-4 -0.075725,0.05421 -0.048828,0.09375 l 0.2402344,0.330078 c 0.023932,0.0335 0.073724,0.0335 0.097656,0 l 0.2382813,-0.330078 c 0.026472,-0.03882 6.79e-5,-0.09163 -0.046875,-0.09375 z"
           id="path53017"
           sodipodi:nodetypes="ccccccc" />
      </g>
    </g>
  </g>
  <g
     inkscape:groupmode="layer"
     id="layer15"
     inkscape:label="Seperator"
     style="display:inline"
     sodipodi:insensitive="true">
    <rect
       style="color:#000000;overflow:visible;fill:#808080;stroke:none;stroke-width:0.3;stroke-linecap:round;stroke-linejoin:round;paint-order:markers fill stroke;stop-color:#000000"
       id="rect52117"
       width="15"
       height="45"
       x="0"
       y="0"
       sodipodi:insensitive="true" />
  </g>
  <g
     inkscape:groupmode="layer"
     id="layer10"
     inkscape:label="F_Copper"
     style="display:inline"
     sodipodi:insensitive="true">
    <path
       id="path46058"
       style="fill:#00cc00;fill-opacity:1;fill-rule:evenodd;stroke:none;stroke-linecap:round;stroke-linejoin:round;stroke-opacity:1"
       d="M 2.0200317,9.6397217 V 11.339876 H 3.7196696 V 9.6397217 Z m 3.389974,0 a 0.85000002,0.85000002 0 0 0 -0.8500773,0.8500773 0.85000002,0.85000002 0 0 0 0.4495849,0.746724 v 2.136821 l -1.5854329,1.585433 a 0.40000001,0.40000001 0 0 0 -0.013953,0.01602 0.40000001,0.40000001 0 0 0 -0.015503,0.01809 0.40000001,0.40000001 0 0 0 -0.034623,0.04909 0.40000001,0.40000001 0 0 0 0,5.17e-4 0.40000001,0.40000001 0 0 0 -0.026872,0.05788 0.40000001,0.40000001 0 0 0 -0.00568,0.01602 0.40000001,0.40000001 0 0 0 -0.011369,0.04341 0.40000001,0.40000001 0 0 0 -0.00413,0.02015 0.40000001,0.40000001 0 0 0 -0.00517,0.06976 v 4.574915 a 0.86360002,0.86360002 0 0 0 -0.4645711,0.761194 0.86360002,0.86360002 0 0 0 0.1307413,0.451135 L 1.7130737,22.29683 a 0.2,0.2 0 0 0 -0.00879,0.0098 0.2,0.2 0 0 0 -0.0093,0.01137 0.2,0.2 0 0 0 -0.03514,0.07338 0.2,0.2 0 0 0 -0.00103,0.0072 0.2,0.2 0 0 0 -0.00413,0.03411 0.2,0.2 0 0 0 -5.168e-4,0.0047 v 3.707267 H 1.0035563 v 1.700155 h 1.1596192 l 2.0634399,2.06499 -0.031006,0.04651 -0.018603,0.0956 v 0.499712 l 0.018603,0.09612 0.031006,0.04547 -0.4924764,0.492476 a 0.2,0.2 0 0 0 0,5.17e-4 0.2,0.2 0 0 0 -5.168e-4,0 0.2,0.2 0 0 0 -0.00155,0.0021 0.2,0.2 0 0 0 -0.018087,0.02119 0.2,0.2 0 0 0 -5.168e-4,5.16e-4 0.2,0.2 0 0 0 -0.00258,0.0036 0.2,0.2 0 0 0 -0.011886,0.02015 0.2,0.2 0 0 0 -0.00568,0.01189 0.2,0.2 0 0 0 -0.00672,0.01654 0.2,0.2 0 0 0 -0.00413,0.01447 0.2,0.2 0 0 0 -0.00258,0.01188 0.2,0.2 0 0 0 -0.00258,0.01809 0.2,0.2 0 0 0 -0.00103,0.01395 0.2,0.2 0 0 0 -5.168e-4,0.0078 v 2.243791 a 0.2,0.2 0 0 0 5.168e-4,0.0062 0.2,0.2 0 0 0 0.00155,0.01912 0.2,0.2 0 0 0 0.0031,0.01602 0.2,0.2 0 0 0 0.0031,0.01447 0.2,0.2 0 0 0 0.0062,0.01654 0.2,0.2 0 0 0 0.00723,0.01654 0.2,0.2 0 0 0 0.00827,0.01447 0.2,0.2 0 0 0 0.00672,0.01188 0.2,0.2 0 0 0 0.021704,0.02532 l 0.8743652,0.874365 -0.068213,0.01395 -0.081132,0.05426 -0.05426,0.08062 -0.01912,0.09612 v 1.099675 l 0.016536,0.08268 v 3.980636 H 4.3015462 l -0.095601,0.0186 -0.081132,0.05426 -0.05426,0.08113 -0.018604,0.0956 v 1.450041 l 0.018604,0.09612 0.05426,0.08062 0.081132,0.05426 0.095601,0.01912 h 1.2004435 l 0.095601,-0.01912 0.081132,-0.05426 0.05426,-0.08062 0.018604,-0.09612 v -0.867648 l 0.287321,-0.287837 a 0.5,0.5 0 0 0 0,-0.706934 0.5,0.5 0 0 0 -0.6366537,-0.05839 v -3.592029 h 1.3337687 l 0.095601,-0.01912 0.081132,-0.05426 0.012402,-0.0186 h 1.5156698 v 0.549837 h 1.0500651 v -1.49965 H 8.4408285 v 0.54932 H 6.9856201 v -0.857312 l -0.018604,-0.09612 -0.05426,-0.08062 -0.081132,-0.05426 -0.095601,-0.01912 H 5.1697103 L 4.076237,33.488395 v -2.078426 l 0.6082316,-0.608232 h 0.6924642 l 0.095601,-0.01912 0.081132,-0.05426 0.05426,-0.08061 0.01912,-0.09612 v -0.499712 l -0.01912,-0.0956 -0.05426,-0.08113 -0.081132,-0.05426 -0.095601,-0.01912 H 4.6849854 L 2.7037109,27.820524 V 26.144657 H 2.0546549 V 22.521623 L 3.2556152,21.319629 A 0.86360002,0.86360002 0 0 0 3.705717,21.449337 0.86360002,0.86360002 0 0 0 4.5692301,20.585824 0.86360002,0.86360002 0 0 0 4.1056925,19.825146 v -4.417301 l 1.3043132,-1.304313 0.2247925,0.224792 a 0.40000001,0.40000001 0 0 0 0.01757,0.01602 0.40000001,0.40000001 0 0 0 0.00517,0.0047 0.40000001,0.40000001 0 0 0 0.040824,0.03101 0.40000001,0.40000001 0 0 0 0.013436,0.0078 0.40000001,0.40000001 0 0 0 0.029972,0.01654 0.40000001,0.40000001 0 0 0 0.014469,0.0067 0.40000001,0.40000001 0 0 0 0.098185,0.02894 0.40000001,0.40000001 0 0 0 0.012919,0.0021 0.40000001,0.40000001 0 0 0 0.060461,0.0031 h 3.037024 A 0.40000001,0.40000001 0 0 0 9.3653198,14.045138 0.40000001,0.40000001 0 0 0 8.9648275,13.646712 H 6.0843831 L 5.810498,13.373344 V 11.23859 A 0.85000002,0.85000002 0 0 0 6.2595662,10.489799 0.85000002,0.85000002 0 0 0 5.4100057,9.6397217 Z m 2.5398966,0 A 0.85000002,0.85000002 0 0 0 7.099825,10.489799 0.85000002,0.85000002 0 0 0 7.9499023,11.339876 0.85000002,0.85000002 0 0 0 8.7999797,10.489799 0.85000002,0.85000002 0 0 0 7.9499023,9.6397217 Z M 6.2456136,19.72231 a 0.86360002,0.86360002 0 0 0 -0.8635132,0.863514 0.86360002,0.86360002 0 0 0 0.8635132,0.863513 0.86360002,0.86360002 0 0 0 0.86403,-0.863513 0.86360002,0.86360002 0 0 0 -0.86403,-0.863514 z m 2.5404134,0 A 0.86360002,0.86360002 0 0 0 7.9219971,20.585824 0.86360002,0.86360002 0 0 0 8.786027,21.449337 0.86360002,0.86360002 0 0 0 9.6495402,20.585824 0.86360002,0.86360002 0 0 0 8.786027,19.72231 Z m 2.539897,0 a 0.86360002,0.86360002 0 0 0 -0.863514,0.863514 0.86360002,0.86360002 0 0 0 0.863514,0.863513 0.86360002,0.86360002 0 0 0 0.450618,-0.130225 l 1.645378,1.645895 v 7.726143 l -0.573609,0.574642 a 0.69999999,0.69999999 0 0 0 -0.326595,-0.08992 0.69999999,0.69999999 0 0 0 -0.699699,0.699699 0.69999999,0.69999999 0 0 0 0.699699,0.700215 0.69999999,0.69999999 0 0 0 0.700216,-0.700215 0.69999999,0.69999999 0 0 0 -0.09043,-0.326595 l 0.632003,-0.633037 a 0.2,0.2 0 0 0 0.03204,-0.04134 0.2,0.2 0 0 0 5.17e-4,-5.17e-4 0.2,0.2 0 0 0 0.01912,-0.04703 0.2,0.2 0 0 0 0,-5.17e-4 0.2,0.2 0 0 0 0.0072,-0.06201 v -7.881689 a 0.2,0.2 0 0 0 -0.0015,-0.01292 0.2,0.2 0 0 0 -0.0052,-0.03359 0.2,0.2 0 0 0 -0.0021,-0.0093 0.2,0.2 0 0 0 -0.01654,-0.03927 0.2,0.2 0 0 0 -0.0036,-0.0067 0.2,0.2 0 0 0 -0.02997,-0.03876 l -1.704806,-1.705322 a 0.86360002,0.86360002 0 0 0 0.130742,-0.451135 0.86360002,0.86360002 0 0 0 -0.863513,-0.863514 z m -8.4837202,2.539897 v 1.727026 h 1.7270263 v -1.727026 z m 3.4034098,0 A 0.86360002,0.86360002 0 0 0 5.3821004,23.12572 0.86360002,0.86360002 0 0 0 6.095752,23.969596 v 2.367298 H 5.9758626 l -0.095601,0.01912 -0.081132,0.05374 -0.05426,0.08113 -0.01912,0.09612 v 0.525032 l 0.01912,0.0956 0.05426,0.08113 0.081132,0.05426 0.095601,0.0186 h 0.8996867 l 0.096118,-0.0186 0.081132,-0.05426 0.053744,-0.08113 0.01912,-0.0956 v -0.525032 l -0.01912,-0.09612 -0.053744,-0.08113 -0.081132,-0.05374 -0.096118,-0.01912 H 6.3965088 v -2.367298 a 0.86360002,0.86360002 0 0 0 0.7131348,-0.843876 0.86360002,0.86360002 0 0 0 -0.86403,-0.863513 z m 2.5404134,0 a 0.86360002,0.86360002 0 0 0 -0.8640299,0.863513 0.86360002,0.86360002 0 0 0 0.714685,0.843876 v 2.367298 H 8.5157593 l -0.095601,0.01912 -0.081132,0.05374 -0.05426,0.08113 -0.01912,0.09612 v 0.525032 l 0.01912,0.0956 0.05426,0.08113 0.081132,0.05426 0.095601,0.0186 h 0.9002034 l 0.095601,-0.0186 0.081132,-0.05426 0.05426,-0.08113 0.018603,-0.0956 v -0.525032 l -0.018603,-0.09612 -0.05426,-0.08113 -0.081132,-0.05374 -0.095601,-0.01912 H 8.9353719 V 23.969596 A 0.86360002,0.86360002 0 0 0 9.6495402,23.12572 0.86360002,0.86360002 0 0 0 8.786027,22.262207 Z m 2.539897,0 a 0.86360002,0.86360002 0 0 0 -0.863514,0.863513 0.86360002,0.86360002 0 0 0 0.662492,0.837158 v 2.269629 L 9.1958211,28.161589 H 8.5157593 l -0.051676,0.01034 H 6.9277425 l -0.052193,-0.01034 H 5.9758626 l -0.095601,0.01912 -0.081132,0.05426 -0.05426,0.08113 -0.01912,0.0956 v 0.525033 l 0.01912,0.0956 0.05426,0.08113 0.081132,0.05426 0.095601,0.01912 h 0.8996867 l 0.096118,-0.01912 0.081132,-0.05426 0.053744,-0.08113 0.01912,-0.0956 v -0.525033 l -0.00827,-0.04082 h 1.1565186 l -0.00827,0.04082 v 0.525033 l 0.01912,0.0956 0.05426,0.08113 0.081132,0.05426 0.095601,0.01912 h 0.9002034 l 0.095601,-0.01912 0.081132,-0.05426 0.05426,-0.08113 0.018603,-0.0956 v -0.525033 l -0.018603,-0.0956 -0.01602,-0.02377 L 11.467,26.455233 a 0.2,0.2 0 0 0 0.0217,-0.02687 0.2,0.2 0 0 0 0.0062,-0.0093 0.2,0.2 0 0 0 0.01188,-0.02325 0.2,0.2 0 0 0 0.0052,-0.0124 0.2,0.2 0 0 0 0.0067,-0.02067 0.2,0.2 0 0 0 0.0041,-0.02222 0.2,0.2 0 0 0 0.0015,-0.01602 0.2,0.2 0 0 0 0.001,-0.0098 v -2.351795 a 0.86360002,0.86360002 0 0 0 0.664042,-0.837158 0.86360002,0.86360002 0 0 0 -0.863513,-0.863513 z m 1.195792,3.833358 a 0.69999999,0.69999999 0 0 0 -0.699699,0.700215 0.69999999,0.69999999 0 0 0 0.699699,0.700216 0.69999999,0.69999999 0 0 0 0.700216,-0.700216 0.69999999,0.69999999 0 0 0 -0.700216,-0.700215 z m -4.7557818,2.476334 a 0.30000001,0.30000001 0 0 0 -0.30024,0.30024 0.30000001,0.30000001 0 0 0 0.2232422,0.284221 0.1,0.1 0 0 0 0.0062,0.0155 l 0.6712769,0.67231 -0.027389,0.01809 -0.05426,0.08113 -0.01912,0.09612 v 0.161747 H 7.6336426 V 30.03951 l -0.018604,-0.09612 -0.05426,-0.08113 -0.081132,-0.05374 -0.095601,-0.01912 H 6.483842 l -0.095601,0.01912 -0.081132,0.05374 -0.05426,0.08113 -0.01912,0.09612 v 0.525033 l 0.01912,0.0956 0.019637,0.02894 -1.0118246,1.012858 H 4.4266032 l -0.095601,0.0186 -0.081132,0.05426 -0.05426,0.08113 -0.018603,0.09612 v 0.499711 l 0.018603,0.0956 0.05426,0.08113 0.081132,0.05426 0.095601,0.01912 h 0.9503296 l 0.095601,-0.01912 0.081132,-0.05426 0.05426,-0.08113 0.01912,-0.0956 v -0.499711 l -0.01912,-0.09612 -0.05426,-0.08113 -0.049093,-0.03307 0.9358602,-0.93586 0.043408,0.0083 h 0.9002034 l 0.095601,-0.0186 0.081132,-0.05426 0.05426,-0.08113 0.018604,-0.0956 v -0.162264 h 0.6320027 v 0.162264 l 0.01912,0.0956 0.05426,0.08113 0.081132,0.05426 0.095601,0.0186 h 0.9002034 l 0.095601,-0.0186 0.081132,-0.05426 0.05426,-0.08113 0.018603,-0.0956 V 30.03951 l -0.018603,-0.09612 -0.05426,-0.08113 -0.081132,-0.05374 -0.095601,-0.01912 H 8.595341 L 7.9245809,29.11967 a 0.30000001,0.30000001 0 0 0 0.1410767,-0.247531 0.30000001,0.30000001 0 0 0 -0.2997234,-0.30024 z m -5.9123006,0.112655 a 0.85000002,0.85000002 0 0 0 -0.8500773,0.850077 0.85000002,0.85000002 0 0 0 0.5823934,0.801502 v 4.245735 h -0.550354 l -0.0956014,0.01912 -0.081132,0.05426 -0.0542603,0.08062 -0.0186035,0.09612 v 1.099675 l 0.0186035,0.0956 0.0542603,0.08113 0.081132,0.05426 0.0956014,0.01912 h 2.1001302 l 0.095601,-0.01912 0.081132,-0.05426 0.05426,-0.08113 0.01912,-0.0956 v -1.099675 l -0.01912,-0.09612 -0.05426,-0.08062 -0.081132,-0.05426 -0.095601,-0.01912 H 2.5858887 V 29.965613 A 0.85000002,0.85000002 0 0 0 2.7037109,29.534631 0.85000002,0.85000002 0 0 0 1.8536336,28.684554 Z m 4.6302084,2.929537 -0.095601,0.01912 -0.081132,0.05426 -0.05426,0.08113 -0.01912,0.0956 v 0.525032 l 0.01912,0.0956 0.05426,0.08113 0.081132,0.05426 0.095601,0.01912 h 0.6805786 l 2.6778727,2.679423 a 0.52499998,0.52499998 0 0 0 -0.1312581,0.345199 v 0.451135 a 0.52499998,0.52499998 0 0 0 0.5255488,0.52555 0.52499998,0.52499998 0 0 0 0.525033,-0.52555 v -0.451135 a 0.52499998,0.52499998 0 0 0 -0.525033,-0.523482 0.52499998,0.52499998 0 0 0 -0.0057,5.16e-4 l -2.6318806,-2.63188 0.01602,-0.02429 0.018604,-0.0956 v -0.525032 l -0.018604,-0.0956 -0.05426,-0.08113 -0.081132,-0.05426 -0.095601,-0.01912 z m 2.0319173,0 -0.095601,0.01912 -0.081132,0.05426 -0.05426,0.08113 -0.01912,0.0956 v 0.525032 l 0.01912,0.0956 0.05426,0.08113 0.081132,0.05426 0.095601,0.01912 h 0.6800618 l 2.1109819,2.110983 v 0.429948 a 0.52499998,0.52499998 0 0 0 -0.326078,0.483691 v 0.451135 a 0.52499998,0.52499998 0 0 0 0.525033,0.52555 0.52499998,0.52499998 0 0 0 0.525549,-0.52555 v -0.451135 a 0.52499998,0.52499998 0 0 0 -0.326078,-0.483691 v -0.506429 a 0.2,0.2 0 0 0 -0.0155,-0.08372 0.2,0.2 0 0 0 -5.17e-4,-0.001 0.2,0.2 0 0 0 -0.0036,-0.0083 0.2,0.2 0 0 0 -0.0062,-0.01189 0.2,0.2 0 0 0 -0.0072,-0.01189 0.2,0.2 0 0 0 -0.02584,-0.03152 l -2.0158981,-2.016414 0.016537,-0.02429 0.018603,-0.0956 v -0.525032 l -0.018603,-0.0956 -0.05426,-0.08113 -0.081132,-0.05426 -0.095601,-0.01912 z m -1.1136271,8.37985 a 0.85000002,0.85000002 0 0 0 -0.8495606,0.851628 v 0.250114 a 0.85000002,0.85000002 0 0 0 0.8495606,0.84956 0.85000002,0.85000002 0 0 0 0.8500773,-0.84956 V 40.845569 A 0.85000002,0.85000002 0 0 0 7.4021322,39.993941 Z m 2.5001058,0 a 0.85000002,0.85000002 0 0 0 -0.8495606,0.851628 v 0.250114 a 0.85000002,0.85000002 0 0 0 0.8495606,0.84956 0.85000002,0.85000002 0 0 0 0.849561,-0.84956 V 40.845569 A 0.85000002,0.85000002 0 0 0 9.902238,39.993941 Z" />
  </g>
  <g
     inkscape:groupmode="layer"
     id="layer11"
     inkscape:label="F_Mask"
     style="display:inline"
     sodipodi:insensitive="true">
    <path
       id="rect52117-4"
       style="color:#000000;display:inline;overflow:visible;fill:#ffffff;stroke:none;stroke-width:0.3;stroke-linecap:round;stroke-linejoin:round;paint-order:markers fill stroke;stop-color:#000000"
       d="M 0,0 V 44.999837 H 15.000118 V 0 Z M 2.020031,9.6397214 H 3.719669 V 11.339876 H 2.020031 Z m 3.389974,0 A 0.85000002,0.85000002 0 0 1 6.259566,10.489799 0.85000002,0.85000002 0 0 1 5.410005,11.339876 0.85000002,0.85000002 0 0 1 4.559928,10.489799 0.85000002,0.85000002 0 0 1 5.410005,9.6397214 Z m 2.539897,0 A 0.85000002,0.85000002 0 0 1 8.7999793,10.489799 0.85000002,0.85000002 0 0 1 7.949902,11.339876 0.85000002,0.85000002 0 0 1 7.099825,10.489799 0.85000002,0.85000002 0 0 1 7.949902,9.6397214 Z M 3.705717,19.72231 A 0.86360002,0.86360002 0 0 1 4.56923,20.585823 0.86360002,0.86360002 0 0 1 3.705717,21.449337 0.86360002,0.86360002 0 0 1 2.842203,20.585823 0.86360002,0.86360002 0 0 1 3.705717,19.72231 Z m 2.539896,0 a 0.86360002,0.86360002 0 0 1 0.86403,0.863513 0.86360002,0.86360002 0 0 1 -0.86403,0.863514 A 0.86360002,0.86360002 0 0 1 5.3821,20.585823 0.86360002,0.86360002 0 0 1 6.245613,19.72231 Z m 2.5404137,0 A 0.86360002,0.86360002 0 0 1 9.6495399,20.585823 0.86360002,0.86360002 0 0 1 8.7860267,21.449337 0.86360002,0.86360002 0 0 1 7.921997,20.585823 0.86360002,0.86360002 0 0 1 8.7860267,19.72231 Z m 2.5398963,0 a 0.86360002,0.86360002 0 0 1 0.863514,0.863513 0.86360002,0.86360002 0 0 1 -0.863514,0.863514 0.86360002,0.86360002 0 0 1 -0.863513,-0.863514 0.86360002,0.86360002 0 0 1 0.863513,-0.863513 z m -8.48372,2.539897 H 4.56923 v 1.727026 H 2.842203 Z m 3.40341,0 A 0.86360002,0.86360002 0 0 1 7.109643,23.12572 0.86360002,0.86360002 0 0 1 6.245613,23.989233 0.86360002,0.86360002 0 0 1 5.3821,23.12572 0.86360002,0.86360002 0 0 1 6.245613,22.262207 Z m 2.5404137,0 A 0.86360002,0.86360002 0 0 1 9.6495399,23.12572 0.86360002,0.86360002 0 0 1 8.7860267,23.989233 0.86360002,0.86360002 0 0 1 7.921997,23.12572 0.86360002,0.86360002 0 0 1 8.7860267,22.262207 Z m 2.5398963,0 a 0.86360002,0.86360002 0 0 1 0.863514,0.863513 0.86360002,0.86360002 0 0 1 -0.863514,0.863513 0.86360002,0.86360002 0 0 1 -0.863513,-0.863513 0.86360002,0.86360002 0 0 1 0.863513,-0.863513 z m 1.195793,3.833358 a 0.69999999,0.69999999 0 0 1 0.700216,0.700215 0.69999999,0.69999999 0 0 1 -0.700216,0.700216 0.69999999,0.69999999 0 0 1 -0.699699,-0.700216 0.69999999,0.69999999 0 0 1 0.699699,-0.700215 z m -11.51816,0.04909 H 2.703711 V 27.84481 H 1.003556 Z m 4.972306,0.192236 h 0.899687 l 0.096118,0.01912 0.081132,0.05374 0.053744,0.08113 0.01912,0.09612 v 0.525033 l -0.01912,0.0956 -0.053744,0.08113 -0.081132,0.05426 -0.096118,0.0186 H 5.975862 l -0.095601,-0.0186 -0.081132,-0.05426 -0.05426,-0.08113 -0.019121,-0.0956 v -0.525033 l 0.019121,-0.09612 0.05426,-0.08113 0.081132,-0.05374 z m 2.539897,0 h 0.9002034 l 0.095601,0.01912 0.081132,0.05374 0.05426,0.08113 0.018603,0.09612 v 0.525033 l -0.018603,0.0956 -0.05426,0.08113 -0.081132,0.05426 -0.095601,0.0186 H 8.515759 l -0.095601,-0.0186 -0.081132,-0.05426 -0.054261,-0.08113 -0.01912,-0.0956 v -0.525033 l 0.01912,-0.09612 0.054261,-0.08113 0.081132,-0.05374 z m -2.539897,1.824695 h 0.899687 l 0.096118,0.01912 0.081132,0.05426 0.053744,0.08113 0.01912,0.0956 v 0.525033 l -0.01912,0.0956 -0.053744,0.08113 -0.081132,0.05426 -0.096118,0.01912 H 5.975862 l -0.095601,-0.01912 -0.081132,-0.05426 -0.05426,-0.08113 -0.019121,-0.0956 v -0.525033 l 0.019121,-0.0956 0.05426,-0.08113 0.081132,-0.05426 z m 2.539897,0 h 0.9002034 l 0.095601,0.01912 0.081132,0.05426 0.05426,0.08113 0.018603,0.0956 v 0.525033 l -0.018603,0.0956 -0.05426,0.08113 -0.081132,0.05426 -0.095601,0.01912 H 8.515759 l -0.095601,-0.01912 -0.081132,-0.05426 -0.054261,-0.08113 -0.01912,-0.0956 v -0.525033 l 0.01912,-0.0956 0.054261,-0.08113 0.081132,-0.05426 z m -6.662126,0.522966 a 0.85000002,0.85000002 0 0 1 0.850078,0.850077 0.85000002,0.85000002 0 0 1 -0.850078,0.850077 0.85000002,0.85000002 0 0 1 -0.850077,-0.850077 0.85000002,0.85000002 0 0 1 0.850077,-0.850077 z m 4.630209,1.104842 h 0.900203 l 0.095602,0.01912 0.081132,0.05374 0.05426,0.08113 0.018603,0.09612 v 0.525032 l -0.018603,0.0956 -0.05426,0.08113 -0.081132,0.05426 -0.095602,0.0186 H 6.483842 l -0.095602,-0.01859 -0.081132,-0.05426 -0.05426,-0.08113 -0.01912,-0.0956 v -0.525032 l 0.01912,-0.09612 0.05426,-0.08113 0.081132,-0.05374 z m 2.031917,0 h 0.9002034 l 0.095601,0.01912 0.081132,0.05374 0.05426,0.08113 0.018603,0.09612 v 0.525032 l -0.018603,0.0956 -0.05426,0.08113 -0.081132,0.05426 -0.095601,0.0186 H 8.515759 l -0.095601,-0.0186 -0.081132,-0.05426 -0.054261,-0.08113 -0.01912,-0.0956 v -0.525032 l 0.01912,-0.09612 0.054261,-0.08113 0.081132,-0.05374 z m -4.089156,0.0124 h 0.950329 l 0.095602,0.01912 0.081132,0.05426 0.05426,0.08113 0.01912,0.0956 v 0.499711 l -0.01912,0.09612 -0.05426,0.08062 -0.081132,0.05426 -0.095602,0.01912 H 4.426603 l -0.095602,-0.01912 -0.081132,-0.05426 -0.05426,-0.08062 -0.018603,-0.09612 v -0.499711 l 0.018603,-0.0956 0.05426,-0.08113 0.081132,-0.05426 z m 8.095113,1.374077 a 0.69999999,0.69999999 0 0 1 0.700216,0.699698 0.69999999,0.69999999 0 0 1 -0.700216,0.700216 0.69999999,0.69999999 0 0 1 -0.699699,-0.700216 0.69999999,0.69999999 0 0 1 0.699699,-0.699698 z m -6.037874,0.438216 h 0.900203 l 0.095602,0.01912 0.081132,0.05426 0.05426,0.08113 0.018603,0.0956 v 0.525032 l -0.018603,0.0956 -0.05426,0.08113 -0.081132,0.05426 -0.095602,0.01912 H 6.483842 l -0.095602,-0.01912 -0.081132,-0.05426 -0.05426,-0.08113 -0.01912,-0.0956 v -0.525032 l 0.01912,-0.0956 0.05426,-0.08113 0.081132,-0.05426 z m 2.031917,0 h 0.9002034 l 0.095601,0.01912 0.081132,0.05426 0.05426,0.08113 0.018603,0.0956 v 0.525032 l -0.018603,0.0956 -0.05426,0.08113 -0.081132,0.05426 -0.095601,0.01912 H 8.515759 l -0.095601,-0.01912 -0.081132,-0.05426 -0.054261,-0.08113 -0.01912,-0.0956 v -0.525032 l 0.01912,-0.0956 0.054261,-0.08113 0.081132,-0.05426 z m -4.089156,0.08785 h 0.950329 l 0.095602,0.0186 0.081132,0.05426 0.05426,0.08113 0.01912,0.09612 v 0.499711 l -0.01912,0.0956 -0.05426,0.08113 -0.081132,0.05426 -0.095602,0.01912 H 4.426603 l -0.095602,-0.01912 -0.081132,-0.05426 -0.05426,-0.08113 -0.018603,-0.0956 v -0.499711 l 0.018603,-0.09612 0.05426,-0.08113 0.081132,-0.05426 z m -3.391008,2.879927 h 2.100131 l 0.095601,0.01912 0.081132,0.05426 0.05426,0.08062 0.019121,0.09612 v 1.099675 l -0.019121,0.0956 -0.05426,0.08113 -0.081132,0.05426 -0.095601,0.01912 H 1.035595 l -0.095601,-0.01912 -0.081132,-0.05426 -0.05426,-0.08113 -0.018604,-0.0956 v -1.099675 l 0.018604,-0.09612 0.05426,-0.08062 0.081132,-0.05426 z m 3.600297,0 h 2.100131 l 0.095601,0.01912 0.081132,0.05426 0.05426,0.08062 0.018604,0.09612 v 1.099675 l -0.018604,0.0956 -0.05426,0.08113 -0.081132,0.05426 -0.095601,0.01912 H 4.635892 l -0.095601,-0.01912 -0.081132,-0.05426 -0.05426,-0.08113 -0.01912,-0.0956 v -1.099675 l 0.01912,-0.09612 0.05426,-0.08062 0.081132,-0.05426 z m 3.804936,0.558106 h 1.0500652 v 1.49965 H 8.440828 Z m 1.795756,5.16e-4 a 0.52499998,0.52499998 0 0 1 0.525033,0.523483 v 0.451135 a 0.52499998,0.52499998 0 0 1 -0.525033,0.525549 0.52499998,0.52499998 0 0 1 -0.5255492,-0.525549 v -0.451135 a 0.52499998,0.52499998 0 0 1 0.5255492,-0.523483 z m 1.269173,0 a 0.52499998,0.52499998 0 0 1 0.52555,0.523483 v 0.451135 a 0.52499998,0.52499998 0 0 1 -0.52555,0.525549 0.52499998,0.52499998 0 0 1 -0.525032,-0.525549 v -0.451135 a 0.52499998,0.52499998 0 0 1 0.525032,-0.523483 z m -4.103625,4.853451 a 0.85000002,0.85000002 0 0 1 0.850077,0.851628 v 0.250114 a 0.85000002,0.85000002 0 0 1 -0.850077,0.84956 0.85000002,0.85000002 0 0 1 -0.849561,-0.84956 v -0.250114 a 0.85000002,0.85000002 0 0 1 0.849561,-0.851628 z m 2.5001056,0 a 0.85000002,0.85000002 0 0 1 0.8495604,0.851628 v 0.250114 a 0.85000002,0.85000002 0 0 1 -0.8495604,0.84956 0.85000002,0.85000002 0 0 1 -0.8495605,-0.84956 v -0.250114 a 0.85000002,0.85000002 0 0 1 0.8495605,-0.851628 z m -5.6006916,10e-4 h 1.200443 l 0.095602,0.0186 0.081132,0.05426 0.05426,0.08113 0.018604,0.0956 v 1.45004 l -0.018604,0.09612 -0.05426,0.08062 -0.081132,0.05426 -0.095602,0.01912 H 4.301546 l -0.095601,-0.01908 -0.081132,-0.05426 -0.054261,-0.08062 -0.018603,-0.09612 v -1.45004 l 0.018603,-0.0956 0.054261,-0.08113 0.081132,-0.05426 z"
       sodipodi:insensitive="true" />
  </g>
  <g
     inkscape:groupmode="layer"
     id="layer12"
     inkscape:label="F_Silk"
     sodipodi:insensitive="true"
     style="display:inline">
    <g
       style="fill:#000000;fill-opacity:1;stroke:#000000;stroke-linecap:round;stroke-linejoin:round;stroke-opacity:1"
       id="g46741"
       transform="translate(-133.2742,-58.5982)" />
    <g
       style="fill:none;stroke:#000000;stroke-width:0.15;stroke-linecap:round;stroke-linejoin:round;stroke-opacity:1"
       id="g47005"
       transform="translate(-133.2742,-58.5982)">
      <text
         x="137.16"
         y="91.279999"
         textLength="2.2024"
         font-size="1.3333px"
         lengthAdjust="spacingAndGlyphs"
         text-anchor="middle"
         opacity="0"
         stroke-opacity="0"
         id="text46743">C1</text>
      <g
         class="stroked-text"
         id="g46787">
        <desc
           id="desc46745">C1</desc>
        <path
           d="m 136.9933,91.1396 -0.0476,0.0476"
           id="path46747" />
        <path
           d="m 136.9457,91.1872 -0.1428,0.0476"
           id="path46749" />
        <path
           d="m 136.8029,91.2348 h -0.0953"
           id="path46751" />
        <path
           d="m 136.7076,91.2348 -0.1428,-0.0476"
           id="path46753" />
        <path
           d="M 136.5648,91.1872 136.4695,91.092"
           id="path46755" />
        <path
           d="m 136.4695,91.092 -0.0476,-0.0953"
           id="path46757" />
        <path
           d="m 136.4219,90.9967 -0.0476,-0.1905"
           id="path46759" />
        <path
           d="M 136.3743,90.8062 V 90.6634"
           id="path46761" />
        <path
           d="m 136.3743,90.6634 0.0476,-0.1905"
           id="path46763" />
        <path
           d="m 136.4219,90.4729 0.0476,-0.0952"
           id="path46765" />
        <path
           d="m 136.4695,90.3777 0.0953,-0.0953"
           id="path46767" />
        <path
           d="m 136.5648,90.2824 0.1428,-0.0476"
           id="path46769" />
        <path
           d="m 136.7076,90.2348 h 0.0953"
           id="path46771" />
        <path
           d="m 136.8029,90.2348 0.1428,0.0476"
           id="path46773" />
        <path
           d="m 136.9457,90.2824 0.0476,0.0477"
           id="path46775" />
        <path
           d="m 137.9457,91.2348 h -0.5714"
           id="path46777" />
        <path
           d="m 137.66,91.2348 v -1"
           id="path46779" />
        <path
           d="m 137.66,90.2348 -0.0952,0.1429"
           id="path46781" />
        <path
           d="m 137.5648,90.3777 -0.0953,0.0952"
           id="path46783" />
        <path
           d="m 137.4695,90.4729 -0.0952,0.0476"
           id="path46785" />
      </g>
      <g
         transform="rotate(-90,140.59,89.8125)"
         id="g46791">
        <text
           x="140.59"
           y="90.3125"
           textLength="3.1547999"
           font-size="1.3333px"
           lengthAdjust="spacingAndGlyphs"
           text-anchor="middle"
           opacity="0"
           stroke-opacity="0"
           id="text46789">R11</text>
      </g>
      <g
         class="stroked-text"
         id="g46837">
        <desc
           id="desc46793">R11</desc>
        <path
           d="m 141.0448,90.4554 -0.4762,0.3333"
           id="path46795" />
        <path
           d="m 141.0448,91.0268 h -1"
           id="path46797" />
        <path
           d="m 140.0448,91.0268 v -0.381"
           id="path46799" />
        <path
           d="m 140.0448,90.6458 0.0476,-0.0952"
           id="path46801" />
        <path
           d="m 140.0924,90.5506 0.0477,-0.0476"
           id="path46803" />
        <path
           d="m 140.1401,90.503 0.0952,-0.0476"
           id="path46805" />
        <path
           d="m 140.2353,90.4554 h 0.1429"
           id="path46807" />
        <path
           d="m 140.3782,90.4554 0.0952,0.0476"
           id="path46809" />
        <path
           d="m 140.4734,90.503 0.0476,0.0476"
           id="path46811" />
        <path
           d="m 140.521,90.5506 0.0476,0.0952"
           id="path46813" />
        <path
           d="m 140.5686,90.6458 v 0.381"
           id="path46815" />
        <path
           d="m 141.0448,89.503 v 0.5714"
           id="path46817" />
        <path
           d="m 141.0448,89.7887 h -1"
           id="path46819" />
        <path
           d="m 140.0448,89.7887 0.1429,0.0952"
           id="path46821" />
        <path
           d="m 140.1877,89.8839 0.0952,0.0953"
           id="path46823" />
        <path
           d="m 140.2829,89.9792 0.0476,0.0952"
           id="path46825" />
        <path
           d="M 141.0448,88.5506 V 89.122"
           id="path46827" />
        <path
           d="m 141.0448,88.8363 h -1"
           id="path46829" />
        <path
           d="m 140.0448,88.8363 0.1429,0.0952"
           id="path46831" />
        <path
           d="m 140.1877,88.9315 0.0952,0.0953"
           id="path46833" />
        <path
           d="m 140.2829,89.0268 0.0476,0.0952"
           id="path46835" />
      </g>
      <text
         x="135.12801"
         y="83.712997"
         textLength="2.9166999"
         font-size="1.3333px"
         lengthAdjust="spacingAndGlyphs"
         text-anchor="middle"
         opacity="0"
         stroke-opacity="0"
         id="text46839">J13</text>
      <g
         class="stroked-text"
         id="g46889">
        <desc
           id="desc46841">J13</desc>
        <path
           d="m 134.3185,82.6678 v 0.7143"
           id="path46843" />
        <path
           d="m 134.3185,83.3821 -0.0476,0.1429"
           id="path46845" />
        <path
           d="m 134.2709,83.525 -0.0953,0.0952"
           id="path46847" />
        <path
           d="m 134.1756,83.6202 -0.1428,0.0476"
           id="path46849" />
        <path
           d="m 134.0328,83.6678 h -0.0953"
           id="path46851" />
        <path
           d="M 135.3185,83.6678 H 134.747"
           id="path46853" />
        <path
           d="m 135.0328,83.6678 v -1"
           id="path46855" />
        <path
           d="m 135.0328,82.6678 -0.0953,0.1429"
           id="path46857" />
        <path
           d="m 134.9375,82.8107 -0.0952,0.0952"
           id="path46859" />
        <path
           d="m 134.8423,82.9059 -0.0953,0.0476"
           id="path46861" />
        <path
           d="m 135.6518,82.6678 h 0.6191"
           id="path46863" />
        <path
           d="m 136.2709,82.6678 -0.3334,0.381"
           id="path46865" />
        <path
           d="m 135.9375,83.0488 h 0.1429"
           id="path46867" />
        <path
           d="m 136.0804,83.0488 0.0952,0.0476"
           id="path46869" />
        <path
           d="m 136.1756,83.0964 0.0476,0.0476"
           id="path46871" />
        <path
           d="m 136.2232,83.144 0.0477,0.0952"
           id="path46873" />
        <path
           d="m 136.2709,83.2392 v 0.2381"
           id="path46875" />
        <path
           d="m 136.2709,83.4773 -0.0477,0.0953"
           id="path46877" />
        <path
           d="m 136.2232,83.5726 -0.0476,0.0476"
           id="path46879" />
        <path
           d="m 136.1756,83.6202 -0.0952,0.0476"
           id="path46881" />
        <path
           d="m 136.0804,83.6678 h -0.2857"
           id="path46883" />
        <path
           d="m 135.7947,83.6678 -0.0953,-0.0476"
           id="path46885" />
        <path
           d="m 135.6994,83.6202 -0.0476,-0.0476"
           id="path46887" />
      </g>
      <text
         x="143.50999"
         y="91.428001"
         textLength="2.25"
         font-size="1.3333px"
         lengthAdjust="spacingAndGlyphs"
         text-anchor="middle"
         opacity="0"
         stroke-opacity="0"
         id="text46891">U3</text>
      <g
         class="stroked-text"
         id="g46939">
        <desc
           id="desc46893">U3</desc>
        <path
           d="m 142.7481,90.3828 v 0.8095"
           id="path46895" />
        <path
           d="m 142.7481,91.1923 0.0476,0.0953"
           id="path46897" />
        <path
           d="m 142.7957,91.2876 0.0476,0.0476"
           id="path46899" />
        <path
           d="m 142.8433,91.3352 0.0953,0.0476"
           id="path46901" />
        <path
           d="m 142.9386,91.3828 h 0.1904"
           id="path46903" />
        <path
           d="m 143.129,91.3828 0.0953,-0.0476"
           id="path46905" />
        <path
           d="m 143.2243,91.3352 0.0476,-0.0476"
           id="path46907" />
        <path
           d="m 143.2719,91.2876 0.0476,-0.0953"
           id="path46909" />
        <path
           d="M 143.3195,91.1923 V 90.3828"
           id="path46911" />
        <path
           d="m 143.7005,90.3828 h 0.619"
           id="path46913" />
        <path
           d="m 144.3195,90.3828 -0.3333,0.381"
           id="path46915" />
        <path
           d="m 143.9862,90.7638 h 0.1428"
           id="path46917" />
        <path
           d="m 144.129,90.7638 0.0953,0.0476"
           id="path46919" />
        <path
           d="m 144.2243,90.8114 0.0476,0.0476"
           id="path46921" />
        <path
           d="m 144.2719,90.859 0.0476,0.0952"
           id="path46923" />
        <path
           d="m 144.3195,90.9542 v 0.2381"
           id="path46925" />
        <path
           d="m 144.3195,91.1923 -0.0476,0.0953"
           id="path46927" />
        <path
           d="m 144.2719,91.2876 -0.0476,0.0476"
           id="path46929" />
        <path
           d="m 144.2243,91.3352 -0.0953,0.0476"
           id="path46931" />
        <path
           d="m 144.129,91.3828 h -0.2857"
           id="path46933" />
        <path
           d="m 143.8433,91.3828 -0.0952,-0.0476"
           id="path46935" />
        <path
           d="m 143.7481,91.3352 -0.0476,-0.0476"
           id="path46937" />
      </g>
      <g
         transform="rotate(-90,137.668,86.36)"
         id="g46943">
        <text
           x="137.668"
           y="86.860001"
           textLength="3.1547999"
           font-size="1.3333px"
           lengthAdjust="spacingAndGlyphs"
           text-anchor="middle"
           opacity="0"
           stroke-opacity="0"
           id="text46941">10K</text>
      </g>
      <g
         class="stroked-text"
         id="g47003">
        <desc
           id="desc46945">10K</desc>
        <path
           d="m 138.1228,87.0505 v 0.5714"
           id="path46947" />
        <path
           d="m 138.1228,87.3362 h -1"
           id="path46949" />
        <path
           d="m 137.1228,87.3362 0.1429,0.0952"
           id="path46951" />
        <path
           d="m 137.2657,87.4314 0.0952,0.0953"
           id="path46953" />
        <path
           d="m 137.3609,87.5267 0.0476,0.0952"
           id="path46955" />
        <path
           d="M 137.1228,86.4314 V 86.3362"
           id="path46957" />
        <path
           d="m 137.1228,86.3362 0.0476,-0.0952"
           id="path46959" />
        <path
           d="m 137.1704,86.241 0.0477,-0.0477"
           id="path46961" />
        <path
           d="m 137.2181,86.1933 0.0952,-0.0476"
           id="path46963" />
        <path
           d="m 137.3133,86.1457 0.1905,-0.0476"
           id="path46965" />
        <path
           d="m 137.5038,86.0981 h 0.2381"
           id="path46967" />
        <path
           d="m 137.7419,86.0981 0.1904,0.0476"
           id="path46969" />
        <path
           d="m 137.9323,86.1457 0.0953,0.0476"
           id="path46971" />
        <path
           d="m 138.0276,86.1933 0.0476,0.0477"
           id="path46973" />
        <path
           d="m 138.0752,86.241 0.0476,0.0952"
           id="path46975" />
        <path
           d="m 138.1228,86.3362 v 0.0952"
           id="path46977" />
        <path
           d="m 138.1228,86.4314 -0.0476,0.0953"
           id="path46979" />
        <path
           d="m 138.0752,86.5267 -0.0476,0.0476"
           id="path46981" />
        <path
           d="m 138.0276,86.5743 -0.0953,0.0476"
           id="path46983" />
        <path
           d="m 137.9323,86.6219 -0.1904,0.0476"
           id="path46985" />
        <path
           d="m 137.7419,86.6695 h -0.2381"
           id="path46987" />
        <path
           d="m 137.5038,86.6695 -0.1905,-0.0476"
           id="path46989" />
        <path
           d="m 137.3133,86.6219 -0.0952,-0.0476"
           id="path46991" />
        <path
           d="m 137.2181,86.5743 -0.0477,-0.0476"
           id="path46993" />
        <path
           d="m 137.1704,86.5267 -0.0476,-0.0953"
           id="path46995" />
        <path
           d="m 138.1228,85.6695 h -1"
           id="path46997" />
        <path
           d="m 138.1228,85.0981 -0.5714,0.4286"
           id="path46999" />
        <path
           d="m 137.1228,85.0981 0.5714,0.5714"
           id="path47001" />
      </g>
    </g>
    <g
       style="fill:none;stroke:#000000;stroke-width:0.12;stroke-linecap:round;stroke-linejoin:round;stroke-opacity:1"
       id="g47073"
       transform="translate(-133.2742,-58.5982)">
      <path
         d="M 137.441,90.1113 V 89.5887"
         id="path47007" />
      <path
         d="M 138.911,90.1113 V 89.5887"
         id="path47009" />
      <path
         d="m 134.16,92.42 h 0.5"
         id="path47011" />
      <path
         d="m 134.41,92.17 v 0.5"
         id="path47013" />
      <path
         d="M 134.9,92.7844 V 92.92"
         id="path47015" />
      <path
         d="M 134.9,92.7844 135.9644,91.72"
         id="path47017" />
      <path
         d="M 134.9,95.1756 V 95.04"
         id="path47019" />
      <path
         d="m 134.9,95.1756 1.0644,1.0644"
         id="path47021" />
      <path
         d="M 135.9644,91.72 H 139.42"
         id="path47023" />
      <path
         d="M 135.9644,96.24 H 139.42"
         id="path47025" />
      <path
         d="m 139.42,91.72 v 1.2"
         id="path47027" />
      <path
         d="m 139.42,96.24 v -1.2"
         id="path47029" />
      <path
         d="M 141.505,90.0396 V 89.5854"
         id="path47031" />
      <path
         d="M 142.975,90.0396 V 89.5854"
         id="path47033" />
      <path
         d="m 134.764,70.468 v -1.38"
         id="path47035" />
      <path
         d="m 136.144,70.468 h -1.38"
         id="path47037" />
      <path
         d="m 137.414,67.708 h 5.19"
         id="path47039" />
      <path
         d="m 137.414,70.468 v -2.76"
         id="path47041" />
      <path
         d="m 137.414,70.468 h 5.19"
         id="path47043" />
      <path
         d="m 142.604,70.468 v -2.76"
         id="path47045" />
      <path
         d="m 139.473,89.5854 v 0.4542"
         id="path47047" />
      <path
         d="m 140.943,89.5854 v 0.4542"
         id="path47049" />
      <path
         d="m 133.748,84.213 h 1.38"
         id="path47051" />
      <path
         d="m 133.748,85.593 v -1.38"
         id="path47053" />
      <path
         d="m 133.748,86.863 v 2.65"
         id="path47055" />
      <path
         d="m 133.748,86.863 h 2.76"
         id="path47057" />
      <path
         d="m 133.748,89.513 h 2.76"
         id="path47059" />
      <path
         d="m 136.508,86.863 v 2.65"
         id="path47061" />
      <path
         d="m 141.71,96.338 h 3.6"
         id="path47063" />
      <path
         d="m 143.51,91.888 a 2.6,2.6 0 0 0 -1.8385,4.4385"
         id="path47065" />
      <path
         d="M 145.3485,96.3265 A 2.6,2.6 0 0 0 143.51,91.888"
         id="path47067" />
      <path
         d="m 145.796,86.314 v 3.16"
         id="path47069" />
      <circle
         cx="145.79601"
         cy="85.393997"
         r="0.92000002"
         id="circle47071" />
    </g>
    <g
       style="fill:none;stroke:#000000;stroke-width:0.254;stroke-linecap:round;stroke-linejoin:round;stroke-opacity:1"
       id="g47079"
       transform="translate(-133.2742,-58.5982)">
      <path
         d="m 133.678,58.864 h 14.224"
         id="path47075" />
      <path
         d="M 133.678,83.502 V 58.864"
         id="path47077" />
    </g>
    <g
       style="fill:none;stroke:#000000;stroke-width:0.1524;stroke-linecap:round;stroke-linejoin:round;stroke-opacity:1"
       id="g47093"
       transform="translate(-133.2742,-58.5982)">
      <path
         d="m 135.71,77.914 v 2.54"
         id="path47081" />
      <path
         d="m 135.71,80.454 v 2.54"
         id="path47083" />
      <path
         d="m 135.71,82.994 h 2.54"
         id="path47085" />
      <path
         d="m 138.25,82.994 h 7.62"
         id="path47087" />
      <path
         d="M 145.87,77.914 H 135.71"
         id="path47089" />
      <path
         d="m 145.87,82.994 v -5.08"
         id="path47091" />
    </g>
    <g
       style="fill:none;stroke:#000000;stroke-width:0.254;stroke-linecap:round;stroke-linejoin:round;stroke-opacity:1"
       id="g47099"
       transform="translate(-133.2742,-58.5982)">
      <path
         d="M 147.902,58.864 V 83.502"
         id="path47095" />
      <path
         d="M 147.902,83.502 H 133.678"
         id="path47097" />
    </g>
    <g
       style="fill:none;stroke:#000000;stroke-width:0.12;stroke-linecap:round;stroke-linejoin:round;stroke-opacity:1"
       id="g47159"
       transform="translate(-133.2742,-58.5982)">
      <path
         d="M 138.965,86.5871 V 86.1329"
         id="path47101" />
      <path
         d="M 140.435,86.5871 V 86.1329"
         id="path47103" />
      <path
         d="m 135.326,96.818 v 1.25"
         id="path47105" />
      <path
         d="m 135.616,97.108 v 5.97"
         id="path47107" />
      <path
         d="m 135.616,103.078 h 10.12"
         id="path47109" />
      <path
         d="m 135.626,97.118 v 0.75"
         id="path47111" />
      <path
         d="m 135.626,97.868 h 1.8"
         id="path47113" />
      <path
         d="m 135.626,99.368 h 0.75"
         id="path47115" />
      <path
         d="m 136.376,99.368 v 2.95"
         id="path47117" />
      <path
         d="m 136.376,102.318 h 4.3"
         id="path47119" />
      <path
         d="m 136.576,96.818 h -1.25"
         id="path47121" />
      <path
         d="m 137.426,97.118 h -1.8"
         id="path47123" />
      <path
         d="m 137.426,97.868 v -0.75"
         id="path47125" />
      <path
         d="m 138.926,97.118 v 0.75"
         id="path47127" />
      <path
         d="m 138.926,97.868 h 3.5"
         id="path47129" />
      <path
         d="m 142.426,97.118 h -3.5"
         id="path47131" />
      <path
         d="m 142.426,97.868 v -0.75"
         id="path47133" />
      <path
         d="m 143.926,97.118 v 0.75"
         id="path47135" />
      <path
         d="m 143.926,97.868 h 1.8"
         id="path47137" />
      <path
         d="m 144.976,99.368 v 2.95"
         id="path47139" />
      <path
         d="m 144.976,102.318 h -4.3"
         id="path47141" />
      <path
         d="m 145.726,97.118 h -1.8"
         id="path47143" />
      <path
         d="m 145.726,97.868 v -0.75"
         id="path47145" />
      <path
         d="m 145.726,99.368 h -0.75"
         id="path47147" />
      <path
         d="m 145.736,97.108 h -10.12"
         id="path47149" />
      <path
         d="m 145.736,103.078 v -5.97"
         id="path47151" />
      <path
         d="M 141.505,86.5871 V 86.1329"
         id="path47153" />
      <path
         d="M 142.975,86.5871 V 86.1329"
         id="path47155" />
      <path
         style="fill:#000000;fill-opacity:1;fill-rule:evenodd;stroke:none"
         d="m 137.8436,82.5876 h -1.7272 v -1.7272 h 1.7272 z"
         id="path47157" />
    </g>
    <g
       style="fill:#000000;fill-opacity:1;stroke:none"
       id="g47177"
       transform="translate(-133.2742,-58.5982)">
      <circle
         cx="136.98"
         cy="79.183998"
         r="0.86360002"
         id="circle47161" />
      <circle
         cx="139.52"
         cy="81.723999"
         r="0.86360002"
         id="circle47163" />
      <circle
         cx="139.52"
         cy="79.183998"
         r="0.86360002"
         id="circle47165" />
      <circle
         cx="142.06"
         cy="81.723999"
         r="0.86360002"
         id="circle47167" />
      <circle
         cx="142.06"
         cy="79.183998"
         r="0.86360002"
         id="circle47169" />
      <circle
         cx="144.60001"
         cy="81.723999"
         r="0.86360002"
         id="circle47171" />
      <circle
         cx="144.60001"
         cy="79.183998"
         r="0.86360002"
         id="circle47173" />
      <path
         style="fill:none;stroke:#000000;stroke-width:0.05;stroke-linecap:round;stroke-linejoin:round;stroke-opacity:1"
         d="m 133.2992,58.6232 h 15 v 45 h -15 z"
         id="path47175" />
    </g>
  </g>
  <use
     x="0"
     y="0"
     xlink:href="#rect52117"
     id="use54697"
     style="display:inline"
     transform="translate(0,50)"
     sodipodi:insensitive="true" />
  <use
     x="0"
     y="0"
     xlink:href="#path41358"
     id="use54694"
     transform="matrix(-1.0000315,0,0,1,15.000305,49.999998)"
     style="display:inline;stroke-width:0.999984"
     sodipodi:insensitive="true" />
  <use
     x="0"
     y="0"
     xlink:href="#bMask"
     id="use54700"
     style="display:inline"
     transform="matrix(-1,0,0,1,27.691702,-33.70396)"
     sodipodi:insensitive="true" />
  <use
     x="0"
     y="0"
     xlink:href="#g54759"
     id="use54761"
     style="display:inline"
     transform="matrix(-1,0,0,1,15.079441,50)"
     sodipodi:insensitive="true" />
  <g
     inkscape:groupmode="layer"
     id="layer16"
     inkscape:label="Components">
    <g
       id="g5964-61-2"
       transform="rotate(-90,16.213322,8.1536447)"
       inkscape:label="res10K">
      <rect
         style="color:#000000;overflow:visible;fill:#ffb86c;fill-opacity:1;stroke:#000000;stroke-width:0.02;stroke-dasharray:none;stroke-opacity:1;paint-order:markers fill stroke;stop-color:#000000"
         id="rect3780-3-6-9-0-0-0-0"
         width="3.1094158"
         height="1.6814847"
         x="-4.9366875"
         y="-2.4838135"
         ry="0.2099701"
         inkscape:label="res" />
      <text
         xml:space="preserve"
         style="color:#000000;font-size:1.05833px;line-height:125%;font-family:Arial;-inkscape-font-specification:Arial;text-decoration:none;text-decoration-line:none;text-decoration-color:#000000;text-anchor:middle;overflow:visible;fill:#000000;fill-opacity:1;stroke:none;stroke-width:0.02;stroke-dasharray:none;stroke-opacity:1;paint-order:markers fill stroke;stop-color:#000000"
         x="-3.3796544"
         y="-1.2691934"
         id="text5169-5-1-9-6-6-6"
         inkscape:label="resLbl"><tspan
           sodipodi:role="line"
           id="tspan5167-6-2-3-2-3-1"
           style="font-size:1.05833px;fill:#000000;fill-opacity:1;stroke:none;stroke-width:0.02"
           x="-3.3796544"
           y="-1.2691934">10K</tspan></text>
    </g>
    <g
       id="g5964-61-2-4"
       transform="rotate(-90,17.493335,6.9056263)"
       inkscape:label="res10K">
      <rect
         style="color:#000000;overflow:visible;fill:#ffb86c;fill-opacity:1;stroke:#000000;stroke-width:0.02;stroke-dasharray:none;stroke-opacity:1;paint-order:markers fill stroke;stop-color:#000000"
         id="rect3780-3-6-9-0-0-0-0-7"
         width="3.1094158"
         height="1.6814847"
         x="-4.9366875"
         y="-2.4838135"
         ry="0.2099701"
         inkscape:label="res" />
      <text
         xml:space="preserve"
         style="color:#000000;font-size:1.05833px;line-height:125%;font-family:Arial;-inkscape-font-specification:Arial;text-decoration:none;text-decoration-line:none;text-decoration-color:#000000;text-anchor:middle;overflow:visible;fill:#000000;fill-opacity:1;stroke:none;stroke-width:0.02;stroke-dasharray:none;stroke-opacity:1;paint-order:markers fill stroke;stop-color:#000000"
         x="-3.3796544"
         y="-1.2691934"
         id="text5169-5-1-9-6-6-6-6"
         inkscape:label="resLbl"><tspan
           sodipodi:role="line"
           id="tspan5167-6-2-3-2-3-1-3"
           style="font-size:1.05833px;fill:#000000;fill-opacity:1;stroke:none;stroke-width:0.02"
           x="-3.3796544"
           y="-1.2691934">10K</tspan></text>
    </g>
    <g
       id="g5964-61-2-4-1"
       transform="rotate(-90,19.298435,8.6364478)"
       inkscape:label="res4K7">
      <rect
         style="color:#000000;overflow:visible;fill:#ffb86c;fill-opacity:1;stroke:#000000;stroke-width:0.02;stroke-dasharray:none;stroke-opacity:1;paint-order:markers fill stroke;stop-color:#000000"
         id="rect3780-3-6-9-0-0-0-0-7-7"
         width="3.1094158"
         height="1.6814847"
         x="-4.9366875"
         y="-2.4838135"
         ry="0.2099701"
         inkscape:label="res" />
      <text
         xml:space="preserve"
         style="color:#000000;font-size:1.05833px;line-height:125%;font-family:Arial;-inkscape-font-specification:Arial;text-decoration:none;text-decoration-line:none;text-decoration-color:#000000;text-anchor:middle;overflow:visible;fill:#000000;fill-opacity:1;stroke:none;stroke-width:0.02;stroke-dasharray:none;stroke-opacity:1;paint-order:markers fill stroke;stop-color:#000000"
         x="-3.3796544"
         y="-1.2691934"
         id="text5169-5-1-9-6-6-6-6-5"
         inkscape:label="resLbl"><tspan
           sodipodi:role="line"
           id="tspan5167-6-2-3-2-3-1-3-9"
           style="font-size:1.05833px;fill:#000000;fill-opacity:1;stroke:none;stroke-width:0.02"
           x="-3.3796544"
           y="-1.2691934">4.7K</tspan></text>
    </g>
    <g
       id="g5964-61-2-4-1-6"
       transform="rotate(-90,18.26713,9.649658)"
       inkscape:label="res62">
      <rect
         style="color:#000000;overflow:visible;fill:#ffb86c;fill-opacity:1;stroke:#000000;stroke-width:0.02;stroke-dasharray:none;stroke-opacity:1;paint-order:markers fill stroke;stop-color:#000000"
         id="rect3780-3-6-9-0-0-0-0-7-7-2"
         width="3.1094158"
         height="1.6814847"
         x="-4.9366875"
         y="-2.4838135"
         ry="0.2099701"
         inkscape:label="res" />
      <text
         xml:space="preserve"
         style="color:#000000;font-size:1.05833px;line-height:125%;font-family:Arial;-inkscape-font-specification:Arial;text-decoration:none;text-decoration-line:none;text-decoration-color:#000000;text-anchor:middle;overflow:visible;fill:#000000;fill-opacity:1;stroke:none;stroke-width:0.02;stroke-dasharray:none;stroke-opacity:1;paint-order:markers fill stroke;stop-color:#000000"
         x="-3.3796544"
         y="-1.2691934"
         id="text5169-5-1-9-6-6-6-6-5-1"
         inkscape:label="resLbl"><tspan
           sodipodi:role="line"
           id="tspan5167-6-2-3-2-3-1-3-9-7"
           style="font-size:1.05833px;fill:#000000;fill-opacity:1;stroke:none;stroke-width:0.02"
           x="-3.3796544"
           y="-1.2691934">62</tspan></text>
    </g>
    <g
       id="g5367-7-0-9"
       transform="rotate(-90,18.688894,15.601452)"
       inkscape:label="cap479pf">
      <rect
         style="color:#000000;overflow:visible;fill:#ff9ae2;fill-opacity:1;stroke:#000000;stroke-width:0.02;stroke-dasharray:none;stroke-opacity:1;paint-order:markers fill stroke;stop-color:#000000"
         id="rect3780-3-6-9-0-61-0"
         width="3.1094158"
         height="1.6814847"
         x="1.4342657"
         y="0.97058195"
         ry="0.2099701"
         inkscape:label="cap" />
      <text
         xml:space="preserve"
         style="color:#000000;font-size:1.05833px;line-height:125%;font-family:Arial;-inkscape-font-specification:Arial;text-decoration:none;text-decoration-line:none;text-decoration-color:#000000;text-anchor:middle;overflow:visible;fill:#ff9ae2;fill-opacity:1;stroke:#000000;stroke-width:0.02;stroke-dasharray:none;stroke-opacity:1;paint-order:markers fill stroke;stop-color:#000000"
         x="2.9912989"
         y="2.1852021"
         id="text5169-5-1-9-59-9"
         inkscape:label="capLbl"><tspan
           sodipodi:role="line"
           id="tspan5167-6-2-3-4-1"
           style="font-size:1.05833px;fill:#000000;stroke:none;stroke-width:0.02"
           x="2.9912989"
           y="2.1852021">479pF</tspan></text>
    </g>
    <g
       id="g126010-0-6-8-3"
       transform="rotate(-90,25.514092,54.831001)"
       style="display:inline"
       inkscape:label="vreg">
      <rect
         style="color:#000000;overflow:visible;fill:#94b8ff;fill-opacity:1;stroke:#000000;stroke-width:0.02;stroke-dasharray:none;stroke-opacity:1;paint-order:markers fill stroke;stop-color:#000000"
         id="rect3780-3-6-9-0-5-2-91-3-0-2"
         width="4.5439234"
         height="2.8756099"
         x="12.549994"
         y="39.578308"
         ry="0.2099701"
         inkscape:label="ic" />
      <text
         xml:space="preserve"
         style="color:#000000;font-size:0.705556px;line-height:125%;font-family:Arial;-inkscape-font-specification:Arial;text-decoration:none;text-decoration-line:none;text-decoration-color:#000000;text-anchor:middle;overflow:visible;fill:#ff9ae2;fill-opacity:1;stroke:#000000;stroke-width:0.02;stroke-dasharray:none;stroke-opacity:1;paint-order:markers fill stroke;stop-color:#000000"
         x="41.03558"
         y="-15.013677"
         id="text5169-5-1-9-0-2-7-5-4-0"
         transform="rotate(90)"
         inkscape:label="icLbl"><tspan
           sodipodi:role="line"
           id="tspan5167-6-2-3-3-6-7-0-1-6"
           style="font-size:0.705556px;fill:#000000;stroke:none;stroke-width:0.02"
           x="41.03558"
           y="-15.013677">3.3V</tspan><tspan
           sodipodi:role="line"
           style="font-size:0.705556px;fill:#000000;stroke:none;stroke-width:0.02"
           x="41.03558"
           y="-14.131732"
           id="tspan230728-1-1">VREG</tspan></text>
    </g>
    <text
       xml:space="preserve"
       style="color:#000000;font-size:1.41111px;line-height:125%;font-family:Arial;-inkscape-font-specification:Arial;text-align:end;text-decoration:none;text-decoration-line:none;text-decoration-color:#000000;text-anchor:end;overflow:visible;opacity:1;fill:#000000;fill-opacity:0.956245;stroke:none;stroke-width:0.3;stroke-linecap:round;stroke-linejoin:round;paint-order:markers fill stroke;stop-color:#000000"
       x="10.465171"
       y="8.2118921"
       id="text55885"><tspan
         sodipodi:role="line"
         id="tspan55883"
         style="fill:#000000;stroke-width:0.3"
         x="10.465171"
         y="8.2118921">3.3V</tspan></text>
    <text
       xml:space="preserve"
       style="color:#000000;font-size:1.41111px;line-height:125%;font-family:Arial;-inkscape-font-specification:Arial;text-align:end;text-decoration:none;text-decoration-line:none;text-decoration-color:#000000;text-anchor:end;overflow:visible;fill:#000000;fill-opacity:0.956245;stroke:none;stroke-width:0.3;stroke-linecap:round;stroke-linejoin:round;paint-order:markers fill stroke;stop-color:#000000"
       x="2.8853605"
       y="8.2975636"
       id="text55885-8"><tspan
         sodipodi:role="line"
         id="tspan55883-5"
         style="fill:#000000;stroke-width:0.3"
         x="2.8853605"
         y="8.2975636">5V</tspan></text>
    <text
       xml:space="preserve"
       style="color:#000000;font-size:1.41111px;line-height:125%;font-family:Arial;-inkscape-font-specification:Arial;text-align:end;text-decoration:none;text-decoration-line:none;text-decoration-color:#000000;text-anchor:end;overflow:visible;fill:#000000;fill-opacity:0.956245;stroke:none;stroke-width:0.3;stroke-linecap:round;stroke-linejoin:round;paint-order:markers fill stroke;stop-color:#000000"
       x="-1.1111264"
       y="30.137371"
       id="text55885-8-7"><tspan
         sodipodi:role="line"
         id="tspan55883-5-4"
         style="fill:#000000;stroke-width:0.3"
         x="-1.1111264"
         y="30.137371">5V</tspan></text>
    <text
       xml:space="preserve"
       style="color:#000000;font-size:1.41111px;line-height:125%;font-family:Arial;-inkscape-font-specification:Arial;text-align:end;text-decoration:none;text-decoration-line:none;text-decoration-color:#000000;text-anchor:end;overflow:visible;fill:#000000;fill-opacity:0.956245;stroke:none;stroke-width:0.3;stroke-linecap:round;stroke-linejoin:round;paint-order:markers fill stroke;stop-color:#000000"
       x="10.843732"
       y="43.430717"
       id="text55885-8-7-7"><tspan
         sodipodi:role="line"
         id="tspan55883-5-4-5"
         style="fill:#000000;stroke-width:0.3"
         x="10.843732"
         y="43.430717">5V</tspan></text>
    <g
       id="g5367-7-3-3"
       transform="rotate(-90,21.525306,10.827427)">
      <rect
         style="color:#000000;overflow:visible;fill:#9abeff;fill-opacity:1;stroke:#000000;stroke-width:0.02;stroke-dasharray:none;stroke-opacity:1;paint-order:markers fill stroke;stop-color:#000000"
         id="rect3780-3-6-9-0-7-5"
         width="3.1094158"
         height="1.6814847"
         x="1.4342657"
         y="0.97058195"
         ry="0.2099701" />
      <text
         xml:space="preserve"
         style="color:#000000;font-size:0.705556px;line-height:125%;font-family:Arial;-inkscape-font-specification:Arial;text-decoration:none;text-decoration-line:none;text-decoration-color:#000000;text-anchor:middle;overflow:visible;fill:#ff9ae2;fill-opacity:1;stroke:#000000;stroke-width:0.02;stroke-dasharray:none;stroke-opacity:1;paint-order:markers fill stroke;stop-color:#000000"
         x="2.9763992"
         y="1.9939145"
         id="text5169-5-1-9-5-9"><tspan
           sodipodi:role="line"
           id="tspan5167-6-2-3-9-3"
           style="font-size:0.705556px;fill:#000000;stroke:none;stroke-width:0.02"
           x="2.9763992"
           y="1.9939145">Polyfuse</tspan></text>
    </g>
    <text
       xml:space="preserve"
       style="color:#000000;font-size:1.41111px;line-height:125%;font-family:Arial;-inkscape-font-specification:Arial;text-align:end;text-decoration:none;text-decoration-line:none;text-decoration-color:#000000;text-anchor:end;overflow:visible;opacity:1;fill:#000000;fill-opacity:0.956245;stroke:none;stroke-width:0.3;stroke-linecap:round;stroke-linejoin:round;paint-order:markers fill stroke;stop-color:#000000"
       x="6.9475985"
       y="8.1617155"
       id="text56024"><tspan
         sodipodi:role="line"
         id="tspan56022"
         style="stroke-width:0.3"
         x="6.9475985"
         y="8.1617155">GND</tspan></text>
    <text
       xml:space="preserve"
       style="color:#000000;font-size:1.41111px;line-height:125%;font-family:Arial;-inkscape-font-specification:Arial;text-align:end;text-decoration:none;text-decoration-line:none;text-decoration-color:#000000;text-anchor:end;overflow:visible;fill:#000000;fill-opacity:0.956245;stroke:none;stroke-width:0.3;stroke-linecap:round;stroke-linejoin:round;paint-order:markers fill stroke;stop-color:#000000"
       x="-0.48577848"
       y="27.410286"
       id="text56024-1"><tspan
         sodipodi:role="line"
         id="tspan56022-8"
         style="stroke-width:0.3"
         x="-0.48577848"
         y="27.410286">GND</tspan></text>
    <text
       xml:space="preserve"
       style="color:#000000;font-size:1.41111px;line-height:125%;font-family:Arial;-inkscape-font-specification:Arial;text-align:end;text-decoration:none;text-decoration-line:none;text-decoration-color:#000000;text-anchor:end;overflow:visible;fill:#000000;fill-opacity:0.956245;stroke:none;stroke-width:0.3;stroke-linecap:round;stroke-linejoin:round;paint-order:markers fill stroke;stop-color:#000000"
       x="6.2979474"
       y="43.354591"
       id="text56024-1-5"><tspan
         sodipodi:role="line"
         id="tspan56022-8-9"
         style="stroke-width:0.3"
         x="6.2979474"
         y="43.354591">GND</tspan></text>
    <text
       xml:space="preserve"
       style="color:#000000;font-size:1.41111px;line-height:125%;font-family:Arial;-inkscape-font-specification:Arial;text-align:end;text-decoration:none;text-decoration-line:none;text-decoration-color:#000000;text-anchor:end;overflow:visible;opacity:1;fill:#000000;fill-opacity:0.956245;stroke:none;stroke-width:0.3;stroke-linecap:round;stroke-linejoin:round;paint-order:markers fill stroke;stop-color:#000000"
       x="9.2765455"
       y="40.533142"
       id="text56127"><tspan
         sodipodi:role="line"
         id="tspan56125"
         style="stroke-width:0.3"
         x="9.2765455"
         y="40.533142">WIRE</tspan></text>
  </g>
</svg>
